<svg xmlns:mydata="http://www.w3.org/2000/svg" mydata:contrastcolor="11111f" mydata:template="Contrast" mydata:presentation="2.5" mydata:layouttype="undefined" mydata:specialfontid="undefined" mydata:id1="009" mydata:id2="049" mydata:companyname="hexa" mydata:companytagline="Transforming the way you read" version="1.1" xmlns="http://www.w3.org/2000/svg" xmlns:xlink="http://www.w3.org/1999/xlink" style="height: 362px;" viewBox="100 165 350 110">
  <g fill="#97d700" fill-rule="nonzero" stroke="none" stroke-width="1" stroke-linecap="butt" stroke-linejoin="miter" stroke-miterlimit="10" stroke-dasharray="" stroke-dashoffset="0" font-family="none" font-weight="none" font-size="none" text-anchor="none" style="mix-blend-mode: normal">
    <g data-paper-data="{&quot;isGlobalGroup&quot;:true,&quot;bounds&quot;:{&quot;x&quot;:104.94402406331395,&quot;y&quot;:167.71287087266697,&quot;width&quot;:340.11195187337205,&quot;height&quot;:134.57425825466603}}">
      
      <g data-paper-data="{&quot;isPrimaryText&quot;:true}" id="element-id-97625">
        <path d="M104.94402,171.71191c0,-1.11801 0.387,-2.06402 1.16101,-2.83803c0.77401,-0.77401 1.72002,-1.16101 2.83803,-1.16101c1.11801,0 2.05327,0.387 2.80578,1.16101c0.75251,0.77401 1.12876,1.72002 1.12876,2.83803v43.60244h55.59956v-43.60244c0,-1.11801 0.387,-2.06402 1.16101,-2.83803c0.77401,-0.77401 1.72002,-1.16101 2.83803,-1.16101c1.07501,0 1.99952,0.387 2.77353,1.16101c0.77401,0.77401 1.16101,1.72002 1.16101,2.83803v95.20297c0,1.11801 -0.387,2.06402 -1.16101,2.83803c-0.77401,0.77401 -1.69852,1.16101 -2.77353,1.16101c-1.11801,0 -2.06402,-0.387 -2.83803,-1.16101c-0.77401,-0.77401 -1.16101,-1.72002 -1.16101,-2.83803v-43.60244h-55.59956v43.60244c0,1.11801 -0.37625,2.06402 -1.12876,2.83803c-0.75251,0.77401 -1.68777,1.16101 -2.80578,1.16101c-1.11801,0 -2.06402,-0.387 -2.83803,-1.16101c-0.77401,-0.77401 -1.16101,-1.72002 -1.16101,-2.83803z" data-paper-data="{&quot;glyphName&quot;:&quot;H&quot;,&quot;glyphIndex&quot;:0,&quot;firstGlyphOfWord&quot;:true,&quot;word&quot;:1}" id="element-id-99913"/>
        <path d="M255.16605,167.71287c1.07501,0 1.99952,0.387 2.77353,1.16101c0.77401,0.77401 1.16101,1.72002 1.16101,2.83803c0,1.07501 -0.387,1.99952 -1.16101,2.77353c-0.77401,0.77401 -1.69852,1.16101 -2.77353,1.16101h-63.53314c-1.11801,0 -2.06402,-0.387 -2.83803,-1.16101c-0.77401,-0.77401 -1.16101,-1.69852 -1.16101,-2.77353c0,-1.11801 0.387,-2.06402 1.16101,-2.83803c0.77401,-0.77401 1.72002,-1.16101 2.83803,-1.16101zM255.16605,262.98034c1.07501,0 1.99952,0.387 2.77353,1.16101c0.77401,0.77401 1.16101,1.69852 1.16101,2.77353c0,1.11801 -0.387,2.06402 -1.16101,2.83803c-0.77401,0.77401 -1.69852,1.16101 -2.77353,1.16101h-63.53314c-1.11801,0 -2.06402,-0.387 -2.83803,-1.16101c-0.77401,-0.77401 -1.16101,-1.72002 -1.16101,-2.83803c0,-1.07501 0.387,-1.99952 1.16101,-2.77353c0.77401,-0.77401 1.72002,-1.16101 2.83803,-1.16101zM194.18068,216.57212c0,0 0.18813,-0.18813 0.56438,-0.56438c0.37625,-0.37625 1.12339,-0.60738 2.2414,-0.69338h52.82604c1.11801,0 2.06402,0.387 2.83803,1.16101c0.77401,0.77401 1.16101,1.72002 1.16101,2.83803c0,1.11801 -0.387,2.06402 -1.16101,2.83803c-0.77401,0.77401 -1.72002,1.16101 -2.83803,1.16101h-52.89054c-0.98901,-0.043 -1.88127,-0.44075 -2.67678,-1.19326c-0.79551,-0.75251 -1.19326,-1.68777 -1.19326,-2.80578c0,-1.07501 0.37625,-1.98877 1.12876,-2.74128z" data-paper-data="{&quot;glyphName&quot;:&quot;Ξ&quot;,&quot;glyphIndex&quot;:1,&quot;word&quot;:1}" id="element-id-78780"/>
        <path d="M311.08812,212.79883l33.73384,-43.34444c0.98901,-1.16101 2.10702,-1.74152 3.35403,-1.74152c1.07501,0 1.99952,0.387 2.77353,1.16101c0.77401,0.77401 1.16101,1.72002 1.16101,2.83803c0,0.86001 -0.215,1.61252 -0.64501,2.25752l-35.28186,45.34396l35.08836,45.08596c0.55901,0.68801 0.83851,1.52652 0.83851,2.51553c0,1.11801 -0.387,2.06402 -1.16101,2.83803c-0.77401,0.77401 -1.69852,1.16101 -2.77353,1.16101c-1.24701,0 -2.25752,-0.4515 -3.03153,-1.35451l-34.05635,-43.66694l-34.05635,43.66694c-0.73101,0.90301 -1.72002,1.35451 -2.96703,1.35451c-1.11801,0 -2.06402,-0.387 -2.83803,-1.16101c-0.77401,-0.77401 -1.16101,-1.72002 -1.16101,-2.83803c0,-0.94601 0.301,-1.78452 0.90301,-2.51553l35.02386,-45.08596l-35.21736,-45.40846c-0.473,-0.55901 -0.70951,-1.29001 -0.70951,-2.19302c0,-1.11801 0.387,-2.06402 1.16101,-2.83803c0.77401,-0.77401 1.72002,-1.16101 2.83803,-1.16101c1.29001,0 2.38652,0.58051 3.28953,1.74152z" data-paper-data="{&quot;glyphName&quot;:&quot;X&quot;,&quot;glyphIndex&quot;:2,&quot;word&quot;:1}" id="element-id-6316"/>
        <path d="M370.68672,268.46289c-0.172,0.43 -0.4515,0.86001 -0.83851,1.29001c-0.77401,0.77401 -1.72002,1.16101 -2.83803,1.16101c-1.11801,0 -2.06402,-0.387 -2.83803,-1.16101c-0.77401,-0.77401 -1.16101,-1.72002 -1.16101,-2.83803c0,-0.55901 0.129,-1.13951 0.387,-1.74152l36.82987,-94.62246c0.258,-0.68801 0.60201,-1.26851 1.03201,-1.74152c0.73101,-0.73101 1.65552,-1.09651 2.77353,-1.09651c1.11801,0 2.06402,0.387 2.83803,1.16101c0.43,0.473 0.77401,1.03201 1.03201,1.67702l36.76537,94.62246c0.258,0.60201 0.387,1.18251 0.387,1.74152c0,1.11801 -0.387,2.06402 -1.16101,2.83803c-0.77401,0.77401 -1.69852,1.16101 -2.77353,1.16101c-0.98901,0 -1.80602,-0.258 -2.45102,-0.77401c-0.473,-0.43 -0.88151,-0.96751 -1.22551,-1.61252l-33.41134,-85.91487z" data-paper-data="{&quot;glyphName&quot;:&quot;Λ&quot;,&quot;glyphIndex&quot;:3,&quot;lastGlyphOfWord&quot;:true,&quot;word&quot;:1}" id="element-id-83364"/>
      </g>
    </g>
  </g>
 

  <rect data-element-id="element-id-97625" stroke-width="2" fill="transparent" class="invisible-element-box grouping-element" x="105" y="168" width="340" height="103" data-element-name="isPrimaryText"/>
  <rect data-element-id="element-id-6316" stroke-width="2" fill="transparent" class="invisible-element-box individual-element" x="270" y="168" width="82" height="103"/>
  <rect data-element-id="element-id-83364" stroke-width="2" fill="transparent" class="invisible-element-box individual-element" x="363" y="168" width="82" height="103"/>
  <rect data-element-id="element-id-99913" stroke-width="2" fill="transparent" class="invisible-element-box individual-element" x="105" y="168" width="71" height="103"/>
  <rect data-element-id="element-id-78780" stroke-width="2" fill="transparent" class="invisible-element-box individual-element" x="188" y="168" width="71" height="103"/>
  <rect data-element-id="element-id-51483" stroke-width="2" fill="transparent" class="invisible-element-box grouping-element" x="105" y="291" width="340" height="12" data-element-name="isSecondaryText"/>
  <rect data-element-id="element-id-13145" stroke-width="2" fill="transparent" class="invisible-element-box individual-element" x="305" y="291" width="14" height="11"/>
  <rect data-element-id="element-id-74326" stroke-width="2" fill="transparent" class="invisible-element-box individual-element" x="178" y="291" width="9" height="12"/>
  <rect data-element-id="element-id-81116" stroke-width="2" fill="transparent" class="invisible-element-box individual-element" x="239" y="291" width="9" height="12"/>
  <rect data-element-id="element-id-95265" stroke-width="2" fill="transparent" class="invisible-element-box individual-element" x="365" y="291" width="9" height="12"/>
  <rect data-element-id="element-id-64430" stroke-width="2" fill="transparent" class="invisible-element-box individual-element" x="129" y="291" width="9" height="11"/>
  <rect data-element-id="element-id-77212" stroke-width="2" fill="transparent" class="invisible-element-box individual-element" x="204" y="291" width="9" height="11"/>
  <rect data-element-id="element-id-68956" stroke-width="2" fill="transparent" class="invisible-element-box individual-element" x="321" y="291" width="9" height="11"/>
  <rect data-element-id="element-id-93330" stroke-width="2" fill="transparent" class="invisible-element-box individual-element" x="333" y="291" width="9" height="11"/>
  <rect data-element-id="element-id-57984" stroke-width="2" fill="transparent" class="invisible-element-box individual-element" x="353" y="291" width="9" height="11"/>
  <rect data-element-id="element-id-70613" stroke-width="2" fill="transparent" class="invisible-element-box individual-element" x="423" y="291" width="9" height="11"/>
  <rect data-element-id="element-id-93436" stroke-width="2" fill="transparent" class="invisible-element-box individual-element" x="437" y="291" width="9" height="11"/>
  <rect data-element-id="element-id-18991" stroke-width="2" fill="transparent" class="invisible-element-box individual-element" x="379" y="291" width="8" height="12"/>
  <rect data-element-id="element-id-79012" stroke-width="2" fill="transparent" class="invisible-element-box individual-element" x="105" y="291" width="8" height="11"/>
  <rect data-element-id="element-id-23960" stroke-width="2" fill="transparent" class="invisible-element-box individual-element" x="117" y="291" width="8" height="11"/>
  <rect data-element-id="element-id-59494" stroke-width="2" fill="transparent" class="invisible-element-box individual-element" x="142" y="291" width="8" height="11"/>
  <rect data-element-id="element-id-20831" stroke-width="2" fill="transparent" class="invisible-element-box individual-element" x="192" y="291" width="8" height="11"/>
  <rect data-element-id="element-id-94101" stroke-width="2" fill="transparent" class="invisible-element-box individual-element" x="226" y="291" width="8" height="11"/>
  <rect data-element-id="element-id-44932" stroke-width="2" fill="transparent" class="invisible-element-box individual-element" x="261" y="291" width="8" height="11"/>
  <rect data-element-id="element-id-77178" stroke-width="2" fill="transparent" class="invisible-element-box individual-element" x="273" y="291" width="8" height="11"/>
  <rect data-element-id="element-id-48787" stroke-width="2" fill="transparent" class="invisible-element-box individual-element" x="400" y="291" width="8" height="11"/>
  <rect data-element-id="element-id-61970" stroke-width="2" fill="transparent" class="invisible-element-box individual-element" x="155" y="291" width="7" height="12"/>
  <rect data-element-id="element-id-25537" stroke-width="2" fill="transparent" class="invisible-element-box individual-element" x="167" y="291" width="6" height="11"/>
  <rect data-element-id="element-id-47230" stroke-width="2" fill="transparent" class="invisible-element-box individual-element" x="286" y="291" width="6" height="11"/>
  <rect data-element-id="element-id-221" stroke-width="2" fill="transparent" class="invisible-element-box individual-element" x="413" y="291" width="6" height="11"/>
  <rect data-element-id="element-id-16162" stroke-width="2" fill="transparent" class="invisible-element-box individual-element" x="219" y="291" width="2" height="11"/>
</svg>
