<?xml version="1.0" encoding="UTF-8"?><svg id="Layer_2" xmlns="http://www.w3.org/2000/svg" viewBox="0 0 414.09 87.56"><defs><style>.cls-1{letter-spacing:-.05em;}.cls-2{fill:#fff;}.cls-2,.cls-3{fill-rule:evenodd;}.cls-3{fill:#66327a;}.cls-4{letter-spacing:-.04em;}.cls-5{fill:#67327b;font-family:TwCenMT-CondensedExtraBold, 'Tw Cen MT Condensed Extra Bold';font-size:80px;font-weight:700;}</style></defs><g id="Layer_1-2"><text class="cls-5" transform="translate(64.69 66.07)"><tspan class="cls-1" x="0" y="0">EaseMy</tspan><tspan class="cls-4" x="207.91" y="0">R</tspan><tspan class="cls-1" x="245.71" y="0">ead</tspan></text><path id="element-id-53758" class="cls-3" d="m8.29,11.79C3.75,11.79,0,15.53,0,20.08v9.58c0,4.55,3.75,8.25,8.29,8.25h9.58c4.55,0,8.25-3.71,8.25-8.25v-9.58c0-4.55-3.71-8.29-8.25-8.29h-9.58Zm13.05,17.88c0,1.96-1.5,3.46-3.46,3.46h-9.58c-1.96,0-3.46-1.5-3.46-3.46v-9.58c0-1.96,1.5-3.46,3.46-3.46h9.58c1.96,0,3.46,1.5,3.46,3.46v9.58Z"/><path id="element-id-6206" class="cls-2" d="m43.97,11.83c7.18,0,13.05,5.87,13.05,13.05s-5.87,13.05-13.05,13.05-13.05-5.87-13.05-13.05,5.87-13.05,13.05-13.05Zm0,4.79c4.57,0,8.21,3.68,8.21,8.25s-3.64,8.21-8.21,8.21-8.26-3.64-8.26-8.21c0-4.57,3.68-8.25,8.26-8.25Z"/><path id="element-id-80509" class="cls-3" d="m57.01,49.1c-.05-4.5-3.74-8.2-8.25-8.2h-9.58c-4.55,0-8.3,3.75-8.3,8.29v9.54c0,4.55,3.75,8.29,8.3,8.29h9.58c4.51,0,8.2-3.69,8.25-8.2v-9.74Zm-4.79,9.64c0,1.96-1.5,3.5-3.46,3.5h-9.58c-1.96,0-3.46-1.54-3.46-3.5v-9.54c0-1.96,1.5-3.46,3.46-3.46h9.58c1.96,0,3.46,1.5,3.46,3.46v9.54Z"/><path id="element-id-52279" class="cls-2" d="m.04,53.98c0,7.18,5.87,13.05,13.05,13.05s13.05-5.87,13.05-13.05-5.87-13.05-13.05-13.05S.04,46.8.04,53.98Zm13.05,8.21c-4.57,0-8.21-3.64-8.21-8.21s3.64-8.25,8.21-8.25,8.21,3.68,8.21,8.25-3.64,8.21-8.21,8.21h0Z"/></g></svg>