<?xml version="1.0" encoding="UTF-8"?><svg id="Layer_2" xmlns="http://www.w3.org/2000/svg" viewBox="0 0 11.19 12.09"><defs><style>.cls-1{fill:#bfbfbf;}.cls-2{fill:#474747;}</style></defs><g id="Layer_1-2"><path class="cls-1" d="M0,0H9.33c1.03,0,1.86,.9,1.86,2V10.09c0,1.1-.83,2-1.86,2H0V0Z"/><path class="cls-2" d="M8.54,5.97c0,.26-.11,.52-.29,.7l-3.99,3.99c-.36,.42-.99,.48-1.41,.12-.42-.36-.48-.99-.12-1.41,.03-.03,.06-.07,.09-.1l.02-.02,3.29-3.28L2.84,2.69c-.37-.41-.34-1.04,.07-1.41,.37-.34,.93-.34,1.31-.02l.02,.02,3.99,3.99c.19,.19,.29,.44,.29,.71Z"/></g></svg>