<?xml version="1.0" encoding="UTF-8"?><svg id="Layer_2" xmlns="http://www.w3.org/2000/svg" viewBox="0 0 11.19 12.09"><defs><style>.cls-1{fill:#bfbfbf;}.cls-2{fill:#474747;}</style></defs><g id="Layer_1-2"><path class="cls-1" d="M0,0H9.33c1.03,0,1.86,.9,1.86,2V10.09c0,1.1-.83,2-1.86,2H0V0Z"/><path class="cls-2" d="M8.33,6c0,.24-.1,.47-.26,.64l-3.61,3.61c-.32,.38-.89,.43-1.28,.11-.38-.32-.43-.89-.11-1.28,.03-.03,.05-.06,.09-.09l.02-.02,2.98-2.97L3.18,3.02c-.34-.37-.31-.94,.06-1.28,.34-.3,.84-.31,1.19-.02l.02,.02,3.61,3.61c.17,.17,.27,.4,.27,.64Z"/></g></svg>