<?xml version="1.0" encoding="UTF-8"?>
<svg id="Layer_2" xmlns="http://www.w3.org/2000/svg" viewBox="0 0 48 48">
    <defs>
        <style>.cls-1{fill:none;}.cls-2{fill:#6100E0;}</style>
    </defs>
    <g id="Layer_1-2">
        <rect class="cls-1" width="48" height="48" />
        <path class="cls-2"
            d="m30.14,6.9c-.6-.6-1.3-.9-2.1-.9h-8.04c-.8,0-1.5.3-2.1.9s-.9,1.3-.9,2.1v30c0,.8.3,1.5.9,2.1.6.6,1.3.9,2.1.9h8.04c.8,0,1.5-.3,2.1-.9.6-.6.9-1.3.9-2.1V9c0-.8-.3-1.5-.9-2.1Zm-8.14,23.1v-12.4l6,6.2-6,6.2Z" />
    </g>
</svg>