<?xml version="1.0" encoding="UTF-8"?><svg id="Layer_2" xmlns="http://www.w3.org/2000/svg" viewBox="0 0 48 48"><defs><style>.cls-1{fill:none;}.cls-2{fill:#010101;}</style></defs><g id="Layer_1-2"><rect class="cls-1" width="48" height="48"/><path class="cls-2" d="m10.75,34.48h30.25v-17.45c.56-.17,1.08-.39,1.57-.68s.96-.61,1.43-.98v19.1c0,.77-.31,1.46-.93,2.08s-1.31.93-2.08.93H12l-8,8V8.47c0-.77.3-1.46.9-2.08s1.3-.93,2.1-.93h21.85c-.13.47-.23.96-.3,1.48s-.08,1.03-.05,1.53H7v29.75l3.75-3.75Z"/><rect class="cls-2" x="12" y="26.53" width="15.65" height="3"/><rect class="cls-2" x="12" y="20.02" width="24" height="3"/><path class="cls-2" d="m12,16.52h21.75c-.7-.37-1.34-.8-1.93-1.3s-1.11-1.07-1.58-1.7H12v3Z"/><polygon class="cls-2" points="43.92 6.52 39.5 6.52 39.5 2.11 36.5 2.11 36.5 6.52 32.08 6.52 32.08 9.52 36.5 9.52 36.5 13.94 39.5 13.94 39.5 9.52 43.92 9.52 43.92 6.52"/></g></svg>