<?xml version="1.0" encoding="UTF-8"?><svg id="Layer_2" xmlns="http://www.w3.org/2000/svg" viewBox="0 0 48 48"><defs><style>.cls-1{fill:none;}.cls-2{fill:#010101;}</style></defs><g id="Layer_1-2"><rect class="cls-1" width="48" height="48"/><path class="cls-2" d="M29.05,24H11c-.8,0-1.5,.3-2.1,.9s-.9,1.3-.9,2.1v17h3V27H27.55v9.3h9.45v7.7h3v-9.05l-10.95-10.95Z"/><path class="cls-2" d="M37,4v14H11V4h-3v14c0,.8,.3,1.5,.9,2.1,.6,.6,1.3,.9,2.1,.9h26c.8,0,1.5-.3,2.1-.9,.6-.6,.9-1.3,.9-2.1V4h-3Z"/></g></svg>