<?xml version="1.0" encoding="UTF-8"?><svg id="Layer_2" xmlns="http://www.w3.org/2000/svg" viewBox="0 0 48 48"><defs><style>.cls-1{fill:none;}.cls-2{fill:#010101;}</style></defs><g id="Layer_1-2"><rect class="cls-2" x="5.95" y="25.5" width="15" height="3"/><rect class="cls-2" x="5.95" y="17.25" width="23.5" height="3"/><rect class="cls-2" x="5.95" y="9" width="23.5" height="3"/><path class="cls-2" d="m38.35,27.09l-1.07-2.48-2.58-1.14,2.58-1.12,1.07-2.36,1.07,2.36,2.58,1.12-2.58,1.14-1.07,2.48Zm0,14.75l-1.07-2.38-2.58-1.12,2.58-1.12,1.07-2.5,1.07,2.5,2.58,1.12-2.58,1.12-1.07,2.38Zm-10.89-3.82l-2.28-4.89-4.98-2.23,4.98-2.23,2.28-4.86,2.31,4.86,4.96,2.23-4.96,2.23-2.31,4.89Z"/><rect class="cls-1" width="48" height="48"/></g></svg>