<?xml version="1.0" encoding="UTF-8"?><svg id="Layer_2" xmlns="http://www.w3.org/2000/svg" viewBox="0 0 24 24"><defs><style>.cls-1{fill:none;}.cls-2{fill:#010101;}</style></defs><g id="Layer_1-2"><g><path class="cls-2" d="M21.61,2.39c-.26-.26-.55-.39-.87-.39H6.44c-.34,0-.63,.13-.88,.39-.25,.26-.38,.55-.38,.87v1.91h1.26v-1.91h14.3V14.2h-1.91v1.26h1.91c.32,0,.61-.13,.87-.39,.26-.26,.39-.55,.39-.87V3.26c0-.32-.13-.61-.39-.87Z"/><path class="cls-2" d="M5.36,15.29h6.58v-1.26H5.36v1.26Zm0-2.73H15.46v-1.26H5.36v1.26Zm0-2.73H15.46v-1.26H5.36v1.26Zm-3.36,12.18V6.44c0-.32,.13-.61,.38-.87s.55-.39,.88-.39h14.3c.32,0,.61,.13,.87,.39s.39,.55,.39,.87v10.94c0,.32-.13,.61-.39,.87s-.55,.39-.87,.39H5.36l-3.36,3.36Zm1.26-3.05l1.58-1.58h12.72V6.44H3.26v12.51Zm0-12.51v0Z"/></g><rect class="cls-1" width="24" height="24"/></g></svg>