<?xml version="1.0" encoding="UTF-8"?><svg id="Layer_2" xmlns="http://www.w3.org/2000/svg" viewBox="0 0 48 48"><defs><style>.cls-1{fill:none;}.cls-2{fill:#010101;}</style></defs><g id="Layer_1-2"><g><path class="cls-2" d="M23.8,33.95c0-.43-.05-.85-.15-1.25l2.35-2.2-1.25-2.1-2.75,.6c-.47-.47-.97-.84-1.5-1.12-.53-.28-1.1-.51-1.7-.67l-.5-3.3h-2.7l-.5,3.3c-.6,.17-1.17,.39-1.7,.67-.53,.28-1.03,.66-1.5,1.12l-2.75-.6-1.25,2.1,2.35,2.2c-.1,.4-.15,.82-.15,1.25s.05,.85,.15,1.25l-2.35,2.2,1.25,2.1,2.75-.6c.47,.47,.97,.84,1.5,1.12s1.1,.51,1.7,.67l.5,3.3h2.7l.5-3.3c.6-.17,1.17-.39,1.7-.67s1.03-.66,1.5-1.12l2.75,.6,1.25-2.1-2.35-2.2c.1-.4,.15-.82,.15-1.25Zm-3.95,2.9c-.73,.73-1.7,1.1-2.9,1.1s-2.17-.37-2.9-1.1-1.1-1.7-1.1-2.9,.37-2.17,1.1-2.9,1.7-1.1,2.9-1.1,2.17,.37,2.9,1.1,1.1,1.7,1.1,2.9-.37,2.17-1.1,2.9Z"/><path class="cls-2" d="M29.05,4H11c-.8,0-1.5,.3-2.1,.9s-.9,1.3-.9,2.1V24h3V7H27.55v9.3h9.45v24.7h-9v3h9c.8,0,1.5-.3,2.1-.9,.6-.6,.9-1.3,.9-2.1V14.95L29.05,4Z"/></g><rect class="cls-1" width="48" height="48"/></g></svg>