<?xml version="1.0" encoding="UTF-8"?><svg id="Layer_2" xmlns="http://www.w3.org/2000/svg" viewBox="0 0 48 48"><defs><style>.cls-1{fill:none;}.cls-2{fill:#010101;}</style></defs><g id="Layer_1-2"><path class="cls-2" d="m29.05,4H11c-.8,0-1.5.3-2.1.9s-.9,1.3-.9,2.1v34c0,.8.3,1.5.9,2.1s1.3.9,2.1.9h26c.8,0,1.5-.3,2.1-.9.6-.6.9-1.3.9-2.1V14.95l-10.95-10.95Zm7.95,37H11V7h16.55v9.3h9.45v24.7Z"/><path class="cls-2" d="m30.18,24.23l-1.07-2.48-2.58-1.14,2.58-1.12,1.07-2.36,1.07,2.36,2.58,1.12-2.58,1.14-1.07,2.48Zm0,14.75l-1.07-2.38-2.58-1.12,2.58-1.12,1.07-2.5,1.07,2.5,2.58,1.12-2.58,1.12-1.07,2.38Zm-10.89-3.82l-2.28-4.89-4.98-2.23,4.98-2.23,2.28-4.86,2.31,4.86,4.96,2.23-4.96,2.23-2.31,4.89Z"/><rect class="cls-1" width="48" height="48"/></g></svg>