<?xml version="1.0" encoding="UTF-8" standalone="no"?><svg xmlns="http://www.w3.org/2000/svg" xmlns:xlink="http://www.w3.org/1999/xlink" fill="#000000" height="500" preserveAspectRatio="xMidYMid meet" version="1" viewBox="0.0 0.0 321.0 500.0" width="321" zoomAndPan="magnify"><g><g><g id="change1_15"><path d="M302.227 367.626L304.01 363.489 306.596 359.485 311.413 357.814 315.382 360.751 319.872 362.883 321.017 367.863 319.449 372.606 315.76 375.782 311.165 376.97 307.939 375.456 305.185 373.659 301.97 371.451z" fill="#010101"/></g><g id="change1_16"><path d="M80.792 499.631L76.544 497.902 72.944 495.143 72.354 490.658 73.17 486.309 76.499 483.398 80.62 482.002 85.66 481.785 89.213 485.557 90.032 490.51 88.68 495.049 85.381 498.434z" fill="#010101"/></g><g id="change1_17"><path d="M58.074 490.311L57.181 495.221 53.186 498.087 48.685 499.89 44.237 498.195 41.615 494.586 39.651 490.532 41.17 486.107 44.647 483.34 48.815 481.528 53.703 481.872 55.949 486.228z" fill="#010101"/></g><g id="change1_18"><path d="M16.508 500L11.743 498.508 9.273 494.409 7.83 490.145 8.752 485.626 12.664 483.268 16.725 481.714 21.351 482.362 25.054 485.555 25.445 490.358 25.067 493.886 22.465 496.262 20.152 499.083z" fill="#010101"/></g><g id="change2_1"><path d="M206.084,58.056c2.293-5.606,4.87-11.188,8.779-16.013c1.186-1.465,2.803-2.615,4.34-3.752 c5.11-3.781,10.81-6.45,16.758-8.613c0.763-0.277,1.586-0.443,2.396-0.517c1.387-0.13,2.356,1.206,1.696,2.474 c-0.624,1.195-1.412,2.36-2.351,3.315c-1.34,1.362-2.913,2.492-4.333,3.779c-0.559,0.506-1.47,0.864-1.199,1.973 c0.761,0.821,1.745,0.387,2.629,0.327c8.756-0.6,17.517-1.072,26.3-0.866c1.779,0.04,3.559,0.172,5.329,0.347 c0.667,0.065,1.336,0.304,1.957,0.575c1.083,0.472,1.36,2.076,0.376,2.702c-1.251,0.799-2.602,1.575-4.018,1.953 c-3.57,0.953-7.197,1.698-10.81,2.483c-1.74,0.378-3.517,0.595-5.244,1.013c-0.577,0.139-1.058,0.673-1.803,1.177 c0.635,0.998,1.148,1.765,1.622,2.553c1.396,2.315,1.324,3.154-0.523,5.034c-0.472,0.481-1.094,0.817-1.315,0.978 c-0.049,0.808-0.134,1.094-0.069,1.342c1.096,4.17,0.626,5.633-2.841,7.996c-1.119,0.763-2.351,1.55-3.64,1.83 c-3.606,0.785-7.266,1.324-10.911,1.931c-1.128,0.188-2.163-0.101-3.089-0.808c-6.114-4.676-12.884-8.331-19.383-12.405 C206.518,58.725,206.395,58.45,206.084,58.056z" fill="#c6c82e"/></g><g id="change3_1"><path d="M164.408,98.264l2.79-2.81l3.141-6.875l3.6-0.906l7.298-6.615l1.852-6.34l10.423-4.834l1.425-3.273 l5.407-5.058l3.327-3.233l3.861-1.208l7.743,5.593l13.474,6.474l0.631,3.311l3.007,3.197l-3.969,5.221l-4.488,5.877 l-11.277,14.351l-2.058,12.998l-7.991,7.163l-4.103,8.832l-7.179,5.765l-3.568,5.546l-16.206,9.295l-15.137-4.02l-1.864-0.15 l0.19-0.246l6.799,11.705l1.286,13.906l4.313,2.204l-4.067,9.571L156.2,184.5l-6.217,2.438l-9.691,4.128l-17.291,2.396 l-17.993-5.119l-19.208,1.143l-9.935,0.244l-7.414,1.942l-7.168-3.492l-3.546-0.541l-11.228,10.77l-12.586,8.512l-9.998,1.324 l-7.691-2.676l-6.479-9.895L5.991,185.65l0.049-10.056l-0.172-12.21L2.546,151.69L0,137.435l2.729-7.027l3.17-16.512L5.528,102.86 l0.374-9.105l9.154-10.047L28.002,72.02l9.501-5.783l10.233-4.403l12.781-5.978l5.615-1.36l-0.004-3.57l16.291-5.517l8.622-6.342 l15.508,0.51l6.609,3.664l9.356,5.353l7.535,11.217l7.387,11.128l4.877,2.814l5.376,8.823l4.063,2.951l11.944,8.456 L164.408,98.264z M41.432,161.969l6.425-2.275l-0.848-1.564l-5.702-11.593l0.539-0.557l1.85-0.28L41.432,161.969z" fill="#0b6380"/></g><g id="change1_9"><path d="M198.502,130.92c-0.119,0-0.148-0.172-0.264-0.224c-0.421-0.195-0.888-0.591-0.694-1.011 c2.051-4.416,2.246-4.327,4.298-8.743c0.047-0.103,0.06-0.257,0.145-0.333c3.884-3.483,5.409-2.275,7.734-6.946 c2.864-5.758,1.186-6.291,2.19-12.642c0.022-0.141,0.007-0.277,0.096-0.392c5.64-7.175,5.479-7.3,11.119-14.474 c0.286-0.362,0.928-0.275,1.293,0.011c0.365,0.286,0.443,0.763,0.157,1.13c-5.57,7.09-7.235,6.056-11.192,14.159 c-2.839,5.814-0.913,6.427-1.924,12.819c-0.031,0.19-0.101,0.427-0.244,0.555c-3.931,3.523-4.727,2.779-7.911,6.991 c-2.886,3.814-1.841,4.414-3.857,8.754C199.307,130.875,198.817,130.92,198.502,130.92z" fill="#010101"/></g><g id="change2_2"><path d="M67.164,49.513l2.293,11.975c0,0-2.492,9.161-5.036,10.64c-2.642,1.537-12.19-0.911-12.19-0.911l-1.166-1.025 l-3.488-5.101l-1.224-2.481l-7.846-6.969l-4.201-0.503l-0.385-0.53l-13.309-5.732l-1.025-8.711l-1.577-2.584l-3.098-13.307 l5.53-15.638L34.83,0l13.852,1.826l13.251,10.271l6.935,14.794l2.074,9.727l-2.499,11.094L67.164,49.513z" fill="#c6c82e"/></g><g id="change2_3"><path d="M174.025 206.341L175.381 212.583 175.956 217.594 175.294 247.312 179.35 268.332 179.032 289.74 178.824 307.981 181.647 326.033 183.296 336.867 182.983 341.606 186.652 342.263 205.166 338.462 218.755 334.568 243.858 328.878 258.675 325.751 259.684 326.283 265.912 337.581 264.527 341.592 245.876 353.688 222.489 365.639 197.596 374.742 174.746 383.901 168.609 385.693 161.549 384.149 155.238 381.14 147.542 366.693 137.159 343.968 130.484 319.887 127.309 295.679 125.669 278.408 122.343 261.464 119.258 245.207 117.571 241.178 115.265 240.464 110.106 260.52 101.349 279.03 94.759 289.972 85.479 306.268 77.555 323.214 70.575 345.682 63.009 361.668 61.215 366.803 65.794 384.568 68.689 409.841 73.421 435.056 74.56 451.637 76.291 455.036 72.269 455.116 67.3 452.116 61.962 455.376 52.777 456.517 48.257 453.177 45.094 428.094 35.821 404.807 27.998 381.199 24.906 365.183 27.137 346.959 26.92 324.773 34.495 304.238 40.951 279.791 50.264 256.308 59.305 232.827 69.349 210.272 73.244 208.162 73.855 208.882 85.833 206.377 104.537 209.209 123.253 209.057 141.967 204.967 155.001 205.967 160.934 204.102 170.851 204.979z" fill="#c6c82e"/></g><g id="change4_1"><path d="M80.853,460.881c-1.125-0.078-1.94-0.101-2.745-0.195c-9.904-1.159-19.817-2.242-29.839-3.512 c-0.98-6.034-3.557-11.345-5.537-16.852c-2.034-5.662-3.271-11.528-4.805-17.318c-0.658-2.483-1.365-4.951-2.011-7.293 c0.933-1.544,2.309-1.577,3.544-1.743c7.333-0.989,14.671-1.955,22.018-2.861c2.917-0.36,5.857-0.553,8.788-0.799 c0.584-0.049,1.179-0.047,1.761,0.011c2.262,0.233,3.114,1.112,3.273,3.356c0.28,3.987,0.532,7.978,0.832,11.962 c0.105,1.407,0.246,2.819,0.501,4.204c0.893,4.852,1.841,9.696,2.767,14.544c0.045,0.23,0.096,0.461,0.121,0.696 c0.492,4.676,0.987,9.354,1.459,14.031C81.027,459.561,80.92,460.024,80.853,460.881z" fill="#e27db2"/></g><g id="change1_19"><path d="M41.924,457.031c-0.327-1.629-0.671-2.996-0.859-4.383c-0.221-1.624-0.461-3.271-0.407-4.899 c0.063-1.922,1.072-3.054,2.955-3.447c2.067-0.432,4.168-0.803,6.271-0.96c6.213-0.459,12.432-0.864,18.653-1.148 c1.978-0.089,4,0.114,5.96,0.447c3.709,0.629,6.177,2.702,6.908,6.555c0.284,1.501,0.579,3.002,0.949,4.486 c0.68,2.736,1.443,5.452,2.128,8.188c0.6,2.392,1.224,4.781,1.673,7.201c0.21,1.132,0.134,2.347,0.007,3.503 c-0.4,3.577-2.541,5.763-5.902,6.669c-1.682,0.454-3.477,0.615-5.228,0.669c-5.758,0.172-11.539-0.029-17.277,0.396 c-11.745,0.87-23.506,0.497-35.255,0.837c-2.582,0.074-5.179,0.029-7.749-0.181c-1.374-0.112-2.796-0.508-4.043-1.101 c-2.752-1.313-3.528-3.814-1.962-6.468c0.756-1.282,1.837-2.452,2.993-3.405c2.649-2.181,5.626-3.846,8.946-4.821 c2.481-0.729,4.971-1.427,7.456-2.136c4.195-1.195,8.262-2.714,12.094-4.821C40.738,457.937,41.184,457.555,41.924,457.031z" fill="#010101"/></g><g id="change4_2"><path d="M262.576,320.682c3.785,6.112,7.427,11.991,11.177,18.047c-6.043,3.792-12.09,7.591-18.139,11.383 c-0.497,0.311-0.991,0.644-1.526,0.881c-6.168,2.734-11.517,6.817-17.181,10.378c-1.787,1.123-3.658,2.116-5.508,3.139 c-1.26,0.696-2.579,1.119-4.19,0.553c-0.251-0.555-0.562-1.174-0.814-1.819c-2.577-6.591-4.331-13.403-5.559-20.365 c-0.591-3.353-1.374-6.676-1.922-10.036c-0.3-1.83,0.573-2.868,2.371-3.306c0.114-0.027,0.233-0.038,0.347-0.067 c6.04-1.461,12.201-2.367,18.181-4.121c1.897-0.557,3.926-0.745,5.911-0.915c4.479-0.38,8.808-1.416,13.094-2.702 C259.936,321.4,261.066,321.102,262.576,320.682z" fill="#e27db2"/></g><g id="change1_20"><path d="M301.749,372.565c-0.112,0.758-0.168,2.067-0.517,3.295c-0.774,2.711-3.027,3.908-5.763,3.168 c-1.738-0.47-3.195-1.468-4.546-2.62c-2.694-2.295-5.128-4.843-7.201-7.714c-1.582-2.19-3.063-4.452-4.622-6.66 c-1.694-2.398-3.369-4.812-5.161-7.137c-0.852-1.105-1.917-2.063-2.957-3.005c-1.635-1.481-3.389-1.897-5.456-0.685 c-1.409,0.826-2.96,1.438-4.499,2.002c-1.204,0.441-2.474,0.792-3.743,0.944c-2.436,0.293-4.436-0.564-5.559-2.843 c-0.933-1.893-1.902-3.801-2.521-5.805c-1.872-6.06-3.584-12.17-5.353-18.264c-0.13-0.45-0.26-0.906-0.324-1.369 c-0.177-1.28,0.233-2.333,1.351-3.022c0.799-0.492,1.629-0.935,2.465-1.362c3.045-1.557,5.828-3.488,8.582-5.515 c2.539-1.868,5.32-3.441,8.112-4.922c2.523-1.34,5.327-1.794,8.195-1.749c4.107,0.065,7.271,1.792,9.21,5.443 c1.045,1.966,1.951,4.018,2.758,6.094c2.385,6.13,4.664,12.3,7.031,18.439c2.494,6.465,5.094,12.89,7.544,19.374 C300.395,362.955,301.473,367.407,301.749,372.565z" fill="#010101"/></g><g id="change3_2"><path d="M66.701,359.216c0.975,1.098,1.671,1.884,2.537,2.859c-0.526,0.62-0.987,1.242-1.526,1.785 c-1.864,1.87-2.02,2.6-0.886,4.958c0.356,0.74,0.834,1.421,1.195,2.157c0.253,0.517,0.403,1.085,0.658,1.796 c-0.624,0.564-1.128,1.271-1.81,1.586c-2.233,1.029-4.474,2.094-6.812,2.823c-6.969,2.168-14.148,3.461-21.347,4.568 c-3.622,0.557-7.284,0.201-10.881-0.488c-1.828-0.351-3.242-1.327-3.973-3.132c-2.43-5.996-4.651-12.067-6.096-18.378 c-0.438-1.915-0.421-3.984-0.311-5.966c0.443-7.913,2.143-15.575,4.691-23.078c0.926-2.729,2.705-4.011,5.461-4.101 c1.765-0.058,3.49,0.096,5.168,0.823c12.065,5.23,24.132,10.452,36.235,15.591c1.732,0.736,2.436,2.045,3.085,3.595 c0.821,1.966,0.989,3.808-0.407,5.624c-1.213,1.577-2.32,3.239-3.472,4.864C67.741,357.749,67.28,358.4,66.701,359.216z" fill="#0b6380"/></g><g id="change3_3"><path d="M166.455,392.277c-3.257,0.365-6.242-1.065-8.924-3.405c-2.154-1.879-3.908-4.092-5.362-6.508 c-3.027-5.029-6.199-9.984-8.539-15.398c-0.28-0.647-0.622-1.268-0.868-1.928c-1.732-4.658-1.481-8.926,2.192-12.714 c3.45-3.559,7.031-6.928,11.342-9.43c4.879-2.83,9.821-5.497,15.362-6.904c3.105-0.79,6.224-1.148,9.405-1.239 c1.107-0.031,2.098,0.217,3.011,0.792c2.996,1.879,5.051,4.228,5.658,8.007c1.62,10.09,3.49,20.143,5.443,30.177 c0.861,4.432-0.038,6.584-4.244,9.436c-2.031,1.38-4.237,2.537-6.463,3.588c-3.286,1.55-6.629,2.993-10.007,4.333 C172.043,392.044,169.459,392.346,166.455,392.277z" fill="#0b6380"/></g><linearGradient gradientTransform="translate(0 -534)" gradientUnits="userSpaceOnUse" id="a" x1="113.088" x2="113.088" xlink:actuate="onLoad" xlink:show="other" xlink:type="simple" y1="850.965" y2="710.471"><stop offset="0" stop-color="#f4f4f4"/><stop offset="1" stop-color="#e27db2"/></linearGradient><path d="M194.755,294.028c-2.987,0.987-5.884,1.904-8.752,2.902c-2.884,1.007-5.729,2.125-8.611,3.141 c-5.66,1.998-11.418,3.647-17.28,4.96c-2.517,0.564-4.966,1.439-7.447,2.163c-4.4,1.286-8.785,2.629-13.206,3.837 c-6.805,1.857-13.64,3.613-20.459,5.423c-1.013,0.268-2,0.691-2.949,0.43c-0.826-0.575-0.72-1.324-0.711-1.998 c0.081-7.054,0.177-14.107,0.286-21.161c0.148-9.532,0.843-19.031,1.653-28.526c0.092-1.074,0.553-2.26-0.157-3.26 c-1.107-0.027-1.302,0.738-1.575,1.336c-1.557,3.423-3.168,6.826-4.593,10.302c-4.054,9.904-8.134,19.792-12.895,29.387 c-1.197,2.412-2.195,4.919-3.378,7.597c-0.723-0.45-1.28-0.821-1.859-1.152c-1.837-1.049-3.66-2.121-5.528-3.112 c-3.013-1.597-6.067-3.116-9.085-4.705c-2.613-1.374-5.013-3.051-7.235-5.007c-4.009-3.53-8.508-6.295-13.488-8.224 c-5.709-2.21-11.302-4.662-16.738-7.479c-1.559-0.808-3.242-1.38-4.864-2.074c-0.864-0.369-1.763-0.687-2.566-1.161 c-2.266-1.34-2.474-2.275-1.013-4.55c1.843-2.868,3.83-5.649,5.584-8.57c3.208-5.34,6.387-10.705,9.405-16.154 c4.331-7.817,8.582-15.682,12.727-23.6c2.454-4.685,4.671-9.494,6.931-14.28c1.322-2.801,1.955-5.792,1.969-8.89 c0.009-2.47-0.083-4.94-0.11-7.409c-0.011-1.036,0.034-2.074,0.051-3.016c0.436-0.166,0.658-0.338,0.857-0.313 c4.38,0.541,8.685-0.031,12.975-0.832c1.734-0.324,3.492-0.555,5.204-0.969c6.145-1.483,12.367-1.474,18.602-0.957 c7.163,0.595,14.336,0.729,21.51,0.537c2.579-0.069,5.159-0.394,7.72-0.741c6.644-0.902,13.28-1.868,19.913-2.839 c1.277-0.186,2.557-0.425,3.796-0.774c3.66-1.034,6.349-3.043,6.837-7.143c0.025-0.201,0.224-0.385,0.405-0.676 c0.886,2.694,2.235,5.078,3.671,7.421c0.553,0.902,1.116,1.808,1.548,2.77c1.685,3.749,3.253,7.553,4.991,11.277 c1.566,3.356,2.268,6.911,2.774,10.528c0.259,1.861,0.541,3.723,0.727,5.593c0.291,2.919,0.454,5.855,0.77,8.772 c0.544,5.025,1.027,10.06,1.785,15.054c1.025,6.738,2.15,13.468,3.483,20.152c1.217,6.098,2.242,12.255,4.456,18.128 c0.783,2.076,1.161,4.307,1.676,6.477c0.597,2.517,1.136,5.045,1.711,7.566C194.565,291.46,194.923,292.697,194.755,294.028z" fill="url(#a)"/><g id="change1_21"><path d="M299.558 307.274L298.643 312.066 294.558 314.592 290.35 316.8 286.471 316.426 283.784 313.646 282.035 310.527 281.816 307.1 283.028 302.943 285.411 298.813 290.18 297.728 293.462 299.368 296.717 300.726 299.321 303.48z" fill="#010101"/></g><g id="change1_22"><path d="M309.746 337.684L308.341 342.158 305.33 346.031 300.451 346.25 295.892 345.521 293.464 341.621 292.091 337.59 292.102 332.603 296.536 330.348 300.728 328.328 305.505 329.33 308.536 333.122z" fill="#010101"/></g><linearGradient gradientTransform="translate(0 -534)" gradientUnits="userSpaceOnUse" id="b" x1="41.163" x2="124.823" xlink:actuate="onLoad" xlink:show="other" xlink:type="simple" y1="676.696" y2="676.696"><stop offset="0" stop-color="#f4f4f4"/><stop offset="0.962" stop-color="#e27db2"/></linearGradient><path d="M41.163,162.014 c0.653-3.114,1.233-5.62,1.696-8.145c1.4-7.629,2.743-15.266,4.134-22.895c0.716-3.931,1.497-7.848,2.235-11.774 c0.432-2.291,1.436-3.215,3.776-3.367c0.819-0.054,1.647-0.022,2.47-0.016c21.519,0.15,43.036,0.302,64.555,0.461 c0.937,0.007,1.888,0.009,2.81,0.159c1.409,0.23,2.04,1.049,1.98,2.452c-0.031,0.702-0.139,1.405-0.266,2.096 c-2.047,11.092-4.078,22.188-6.168,33.273c-0.676,3.577-1.456,7.139-2.282,10.685c-0.671,2.886-1.732,3.761-4.597,3.861 c-6.696,0.239-13.396,0.432-20.094,0.624c-2.821,0.081-5.642,0.116-8.463,0.161c-0.441,0.007-0.881-0.054-1.801-0.116 c1.454-1.438,2.537-2.62,3.738-3.664c1.125-0.98,1.447-2.15,1.022-3.481c-0.64-2.009-1.201-4.081-2.157-5.942 c-2.188-4.26-4.577-8.418-7.96-11.893c-0.069-0.072-0.21-0.076-0.315-0.112c-0.226,0.038-0.508,0-0.667,0.123 c-2.492,1.922-5.407,2.682-8.425,3.32c-2.541,0.537-4.868,1.729-6.998,3.235c-2.398,1.694-4.79,3.403-7.125,5.186 C49.058,158.681,45.513,160.424,41.163,162.014z" fill="url(#b)"/><g id="change2_4"><path d="M111.83,136.878c1.235,0.21,1.586,0.298,1.944,0.329c4.016,0.349,4.011,0.338,7.313-1.971 c0.987-0.691,1.993-1.36,3.036-1.964c0.508-0.295,1.101-0.474,1.68-0.611c0.765-0.181,1.55,0.575,1.266,1.284 c-0.544,1.353-0.689,2.745-0.868,4.172c-0.112,0.879-0.801,1.734-1.365,2.501c-1.074,1.461-2.025,2.942-2.678,4.676 c-1.767,4.694-5.546,7.179-10.152,8.463c-2.781,0.776-5.651,1.248-8.499,1.765c-5.814,1.058-11.64,2.063-17.465,3.067 c-0.698,0.121-1.421,0.105-2.295,0.163c-3.027-4.812-6.027-9.584-9.141-14.535c1.488-3.177,2.879-6.376,4.465-9.477 c1.385-2.702,3.273-5.072,5.584-7.063c2.009-1.734,4.04-3.445,6.119-5.094c0.841-0.667,1.812-1.186,2.772-1.68 c0.685-0.353,1.418-0.28,2.011,0.28c0.622,0.586,0.62,1.338,0.215,1.982c-0.828,1.324-1.705,2.626-2.66,3.864 c-0.81,1.047-1.79,1.962-2.629,2.989c-0.45,0.55-0.819,1.186-1.123,1.83c-0.311,0.658,0.217,1.602,0.913,1.651 c0.839,0.06,1.691,0.069,2.528-0.007c6.497-0.588,12.953-1.38,19.197-3.414c2.407-0.783,4.855-1.452,7.313-2.06 c0.781-0.195,1.676-0.152,2.472,0.004c1.051,0.208,1.51,1.494,0.821,2.264c-0.716,0.799-1.506,1.588-2.409,2.15 c-1.532,0.953-3.175,1.723-4.774,2.566C114.486,135.495,113.553,135.978,111.83,136.878z" fill="#c6c82e"/></g><g id="change2_5"><path d="M305.142,372.304c-0.136,2.036-0.277,4.018-1.134,5.886c-2.588,5.658-8.349,5.237-11.703,2.246 c-1.662-1.483-2.078-3.409-1.383-5.468c0.409-1.206,1.007-2.403,1.761-3.425c1.485-2.011,1.611-4.083,0.736-6.32 c-0.342-0.875-0.734-1.734-1.007-2.631c-0.577-1.908-1.3-3.803-1.591-5.758c-0.962-6.474-3.172-12.51-6.179-18.266 c-1.902-3.64-3.973-7.195-6.069-10.729c-1.387-2.34-2.687-4.691-3.096-7.421c-0.398-2.658-1.837-4.481-4.228-5.678 c-1.04-0.521-2.038-1.195-2.915-1.96c-1.949-1.698-2.246-3.872-0.754-5.971c0.664-0.935,1.544-1.823,2.519-2.409 c1.497-0.899,3.183-1.47,4.745-2.271c1.389-0.711,2.566-0.32,3.503,0.676c0.792,0.841,1.443,1.852,1.989,2.877 c1.763,3.318,3.55,6.626,5.143,10.027c3.736,7.973,7.414,15.973,11.009,24.011c1.145,2.564,2.143,5.226,2.884,7.931 c1.765,6.452,3.374,12.949,4.966,19.448C304.76,368.798,304.885,370.568,305.142,372.304z" fill="#c6c82e"/></g><g id="change2_6"><path d="M68.302,484.434c-6.631-0.244-13.904-0.658-21.179-0.729c-5.394-0.054-10.792,0.351-16.188,0.526 c-5.984,0.195-11.966,0.512-17.935-0.432c-2.886-0.456-5.11-1.7-6.329-4.403c-0.378-0.837-0.624-1.781-0.694-2.696 c-0.188-2.465,1.532-4.213,4.034-4.3c1.237-0.042,2.329,0.358,3.304,1.029c1.157,0.799,2.251,1.691,3.345,2.579 c1.132,0.917,2.342,1.365,3.859,1.371c5.315,0.022,10.526-0.62,15.714-1.761c6.873-1.512,13.792-2.808,20.687-4.226 c2.966-0.611,5.834-0.378,8.635,0.772c0.541,0.221,1.121,0.356,1.664,0.57c3.351,1.322,6.649,1.096,9.946-0.246 c1.626-0.662,3.268-1.336,4.966-1.763c3.253-0.823,5.28,0.776,5.264,4.152c-0.007,1.385-0.255,2.803-0.624,4.143 c-0.526,1.899-1.767,3.349-3.624,4.06c-1.519,0.579-3.114,1.195-4.707,1.295C75.287,484.575,72.11,484.434,68.302,484.434z" fill="#c6c82e"/></g><g id="change3_4"><path d="M282.927,359.892c1.078,0.318,1.77,0.472,2.423,0.727c1.242,0.485,1.888,1.452,1.72,2.729 c-0.356,2.687-1.72,4.848-3.756,6.573c-0.763,0.647-1.761,0.814-2.64,0.259c-0.875-0.555-1.74-1.197-2.423-1.969 c-1.089-1.228-1.984-2.624-3.049-3.877c-0.302-0.353-0.904-0.45-1.635-0.787c-0.242,1.183-0.342,2.094-0.62,2.946 c-0.696,2.145-2.776,2.727-4.441,1.197c-0.676-0.62-1.15-1.474-1.653-2.262c-0.432-0.676-0.779-1.405-1.309-2.383 c-0.407,0.548-0.74,0.843-0.875,1.21c-0.322,0.879-0.459,1.832-0.837,2.68c-0.671,1.508-2.043,2.315-3.34,2.049 c-1.447-0.298-2.224-1.293-2.425-2.687c-0.132-0.917-0.21-1.893-0.049-2.794c0.414-2.309,0.87-4.62,1.508-6.873 c0.584-2.063,0.966-4.11,0.783-6.251c-0.02-0.235-0.02-0.47-0.018-0.705c0.022-4.47,1.356-6.163,5.689-7.107 c1.49-0.324,3-0.633,4.515-0.756c2.333-0.19,3.819,0.79,4.644,2.955c0.331,0.87,0.49,1.81,0.696,2.725 c0.154,0.687,0.224,1.391,0.394,2.074c0.394,1.584,1.15,2.81,2.96,3.072c2.089,0.302,2.935,1.696,3.145,3.667 C282.458,357.456,282.708,358.592,282.927,359.892z" fill="#0b6380"/></g><g id="change3_5"><path d="M33.864,459.543c-0.917-0.441-1.846-0.861-2.749-1.329c-1.837-0.949-3.271-2.345-4.069-4.242 c-0.396-0.94-0.629-2.04-0.586-3.051c0.121-2.888,2.228-4.499,5.038-3.897c2.369,0.508,4.342,1.747,5.884,3.64 c1.105,1.356,2.201,2.718,3.409,4.21c0.711-0.322,1.385-0.51,1.922-0.89c1.626-1.159,3.145-2.474,4.814-3.566 c1.161-0.761,2.445-1.443,3.77-1.812c1.698-0.472,3.289,0.103,4.436,1.483c1.136,1.369,1.351,2.935,0.711,4.633 c-0.519,1.376-1.436,2.425-2.568,3.289c-1.787,1.362-3.732,2.443-5.908,3.065c-0.678,0.192-1.365,0.362-2.027,0.595 c-1.624,0.57-2.067,1.179-2.047,2.823c0.009,0.819,0.192,1.649,0.114,2.454c-0.186,1.897-1.72,2.852-3.53,2.286 c-0.112-0.036-0.233-0.065-0.327-0.13c-2.488-1.727-4.515-1.465-6.121,1.268c-0.436,0.74-1.369,0.872-2.221,0.821 c-0.465-0.029-0.98-0.047-1.376-0.253c-2.497-1.295-4.51-0.792-6.123,1.494c-0.195,0.277-0.519,0.472-0.808,0.671 c-0.872,0.606-1.877,0.441-2.463-0.396c-0.067-0.096-0.13-0.197-0.172-0.306c-0.716-1.765-1.79-3.282-3.051-4.705 c-0.832-0.937-0.691-2.087,0.333-2.738c1.078-0.685,2.244-1.322,3.459-1.687c2.02-0.606,4.112-0.969,6.168-1.456 c2.034-0.483,4.06-0.998,6.092-1.501C33.859,460.06,33.861,459.803,33.864,459.543z" fill="#0b6380"/></g><linearGradient gradientTransform="translate(0 -534)" gradientUnits="userSpaceOnUse" id="c" x1="10.345" x2="31.904" xlink:actuate="onLoad" xlink:show="other" xlink:type="simple" y1="574.804" y2="574.804"><stop offset="0" stop-color="#f4f4f4"/><stop offset="0.962" stop-color="#e27db2"/></linearGradient><path d="M31.904,29.566 c-1.23,3.951-3.781,6.512-6.465,8.933c-0.553,0.499-1.499,0.698-2.289,0.779c-3.226,0.324-4.857,2.45-5.28,5.266 c-0.51,3.4-2.895,5.175-5.143,7.166c-0.237,0.21-0.638,0.271-0.975,0.322c-0.828,0.13-1.709-0.886-1.306-1.575 c0.586-1,1.217-2.007,2.002-2.85c3.188-3.432,6.436-6.808,9.676-10.192c1.62-1.691,3.275-3.349,4.893-5.043 C28.244,31.09,29.577,29.993,31.904,29.566z" fill="url(#c)"/><g id="change1_23"><path d="M235.164,60.998c0.356,0.331,0.655,0.779,1.074,0.971c1.351,0.62,2.745,1.145,4.557,1.884 c-0.705,0.501-1.157,1.054-1.416,0.973c-1.953-0.604-3.881-1.298-5.788-2.04c-0.62-0.242-1.19-0.667-1.705-1.101 c-0.837-0.705-0.951-1.55-0.349-2.564c0.34-0.575,0.81-1.072,1.3-1.707c-0.924-0.459-1.776-0.803-2.546-1.282 c-1.257-0.783-1.423-1.765-0.555-3.121c0.289-0.45,0.727-0.805,1.087-1.195c-0.508-0.705-0.973-1.349-1.508-2.089 c1.148-2.81,3.682-3.584,6.172-4.175c3.953-0.935,6.888-0.009,10.812,3.132c5.779-0.642,11.707-1.465,17.356-3.671 c1.016-0.396,2.029-0.861,2.933-1.461c0.861-0.57,1.577-1.36,2.329-2.029c1.134,0.6,0.969,1.456,0.412,2.069 c-0.624,0.687-1.468,1.21-2.289,1.68c-4.107,2.349-8.682,3.244-13.246,4.132c-2.277,0.443-4.588,0.711-6.87,1.056 c-0.414,0.74-0.794,1.418-1.134,2.027c-0.414,0.047-0.705,0.163-0.944,0.094c-2.544-0.729-5.136-0.687-7.741-0.546 c-1.559,0.085-1.996,1.072-2.067,2.611c-1.168-0.145-2.3-0.286-3.935-0.488c2.839,1.72,5.186,2.557,8.031,2.729 c1.821,0.112,3.532,0.465,5.038,1.488c0.519,0.351,0.872,0.946,1.747,1.935c-3.479-0.412-6.043-2.828-9.105-1.394 c0.174,1.228-0.47,1.931-1.723,2.172c-0.239-0.228-0.452-0.506-0.729-0.66c-0.089-0.049-0.358,0.224-0.544,0.349 c0.087,0.072,0.17,0.197,0.262,0.204C234.44,61.007,234.802,60.996,235.164,60.998z M243.858,50.237 c0.051-0.336,0.221-0.698,0.112-0.839c-1.718-2.19-6.197-3.239-8.546-2.031c-0.119,0.06-0.226,0.157-0.322,0.253 c-0.459,0.456-0.857,1.007-1.387,1.347c-0.452,0.291-1.304-0.474-1.752,0.779c0.897,0.291,1.741,0.796,2.584,0.794 C237.654,50.528,240.764,50.349,243.858,50.237z" fill="#010101"/></g><g id="change1_24"><path d="M227.907,41.114c1.389,2.676,1.049,4.808,0.647,6.913c-0.49,2.57-1.515,4.913-3.389,6.79 c-0.23,0.23-0.843,0.076-1.662,0.123c0.942-1.682,1.817-2.904,2.333-4.26c0.57-1.494,0.852-3.107,1.186-4.682 C227.31,44.618,226.598,43.07,227.907,41.114z" fill="#010101"/></g><g id="change1_25"><path d="M231.853,31.217c1.13-0.579,1.902-1.123,2.756-1.369c0.823-0.237,1.662-1.067,2.609-0.253 c0.503,0.432-0.336,1.275-2.063,1.783C234.245,31.644,233.321,32.747,231.853,31.217z" fill="#010101"/></g></g><g><g id="change1_6"><path d="M125.159,138.596c0.441,0.089,1.107,0.273,1.512,0.356c0.289,1.253-0.376,2.204-0.893,2.913 c-0.897,1.233-2.132,2.125-2.559,3.678c-0.333,1.213-1.644,2.029-2.3,3.141c-1.125,1.906-2.291,3.676-4.412,4.271 c-7.347,2.054-14.77,3.546-22.416,4.284c-2.555,0.246-5.45,0.499-8.177,0.868c0.179,1.217,0.416,2.931,0.566,3.944 c0.183,1.237-0.143,1.781-1.13,2.709c-5.993,5.638-10.808,12.633-17.354,17.676c-1.474,1.136-2.971,1.826-4.271,3.398 c1.295,1.689,2.754,2.02,4.564,2.521c3.463,0.96,6.978,2.145,10.494,1.716c5.362-0.658,10.579-2.57,15.953-3.092 c3.378-0.327,6.841-0.506,10.239-0.385c4.345,0.152,8.656,1.277,13,1.45c6.951,0.275,13.85-0.685,20.718-1.756 c5.682-0.886,11.479-1.083,17.154-2.025c1.962-0.324,3.973-0.904,5.855-1.537c2.821-0.946,3.801-3.069,3.418-6.351 c-0.04-0.342-0.002-0.87,0.04-1.217c0.013-0.105,0.881,0.114,1.092-0.201c0.304,0.228,1.307,0.063,1.365,0.331 c0.763,3.57-1.06,5.667-4.246,7.315c-1.237,0.64-2.362,1.546-3.689,2.007c-0.651,0.226-1.351,0.286-2.152,0.532 c-0.051,0.877-0.796,1.678-0.774,2.47c0.096,3.658,1.219,7.255,2.063,10.808c1.166,4.904,4.069,8.55,8.213,11.416 c1.058,0.732,1.407,2.119,2.606,2.926c0.063,0.758,1.235,1.081,1.262,1.886c0.329,9.767,0.3,19.584,2.166,29.181 c0.582,2.987,1.474,5.966,2.331,8.895c1.418,4.846,3.005,9.629,4.284,14.508c0.803,3.058,2.116,6.002,2.783,9.101 c0.541,2.517,0.808,5.092,1.546,7.562c0.94,3.148,2.447,6.116,3.441,9.248c0.168,0.532-0.333,1.964-0.166,2.427 c2.579,0.172,4.602-2.161,7.161-1.584c-0.152,0.405,0.101,0.579-0.031,0.624c-4.432,1.517-8.796,3.257-13.246,4.72 c-0.264,0.087-0.036-0.345-0.555-0.479c1.432-2.029,2.761-2.206,4.537-3.754c-0.034-0.47,0.532-0.801,0.362-1.445 c-0.537-2.043-0.459-4.349-1.233-6.307c-1.958-4.946-4.206-9.741-4.89-15.022c-0.729-5.615-2.067-11.063-4.074-16.338 c-3.21-8.443-4.481-17.286-5.356-26.19c-0.539-5.494-1.145-10.973-1.604-16.606c-0.302-0.246-0.602-0.199-0.991-0.43 c-6.568-3.886-9.837-10.219-10.839-17.62c-0.423-3.13-0.414-6.331-0.756-9.49c-0.55-0.629-1.405-0.389-2.072-0.284 c-6.029,0.964-11.92,2.868-17.958,3.776c-7.233,1.087-14.667,0.951-21.971,0.324c-2.81-0.242-5.624-0.107-8.445-0.224 c-0.664-0.027-1.311-0.501-1.864-0.43c-0.136,0.311-0.617,0.454-0.608,0.55c0.662,6.709,0.895,13.367,0.738,20.061 c-0.038,1.64-1.085,3.255-1.125,4.895c-0.112,4.582-1.025,9.199-0.83,13.772c0.186,4.378,2.009,8.535,4.235,12.383 c1.949,3.367,4.591,6.119,7.242,8.989c0.958,1.036,1.776,2.244,2.68,3.327c1.638,1.964,1.846,4.579,1.767,7.152 c-0.123,3.991-0.392,7.962-0.687,11.942c-0.548,7.392-1.248,14.843-0.895,22.266c0.242,5.043,1.345,10.069,1.333,15.123 c-0.004,1.848-0.638,2.908-0.188,4.899c4.727-0.83,9.085-2.642,13.716-2.958c0.409,1.286-0.62,2.309-1.215,2.459 c-3.074,0.763-6.333,0.765-9.416,1.499c-1.579,0.378-2.926,0.749-4.765,1.208c-0.119-0.747-0.696-0.664-0.689-1.181 c0.038-2.233,0.101-4.483,0.244-6.711c0.324-5.056,0.919-10.101,0.633-15.161c-0.447-7.881-1.004-15.781-0.096-23.633 c0.376-3.257,1.21-6.503,1.26-9.792c0.034-2.208-1.186-4.163-2.57-5.848c-0.821-0.998-1.85-1.817-2.72-2.774 c-2.624-2.886-3.991-6.6-5.978-9.953c-2.387-4.034-4.85-7.935-5.349-12.548c-0.622-5.77-0.072-11.604,0.304-17.356 c0.414-6.331,1.32-12.635,1.51-18.98c0.036-1.163,0.208-2.602,0.114-3.629c-0.828-0.989-2.385-0.224-3.289-0.172 c-4.461,0.244-8.805,1.022-13.215,1.779c-2.412,0.414-4.873,0.204-7.508,0.613c0.197,1.114-0.168,1.987,0.051,2.861 c0.573,2.284,2.148,4.485,2.094,6.868c-0.103,4.497-2.725,8.002-6.575,10.201c-2.327,1.329-4.942,2.163-7.434,3.195 c-0.262,0.107-0.969-0.022-1.541-0.132c0.403-0.459,0.698-1.445,1.051-1.626c0.935-0.483,1.87-1.06,2.837-1.488 c1.179-0.526,2.396-0.87,3.528-1.479c4.043-2.175,6.47-5.166,6.255-9.653c-0.141-2.928-0.718-6.11-1.928-9.087 c-1.336-0.051-3.112,0.727-4.492,0.667c-2.617-0.116-4.794-1.682-7.058-3.058c-0.7-0.425-1.224-0.926-1.837-1.468 c-0.951-0.839-0.989-0.868-0.136-1.881c0.376-0.447-0.094-1.741,0.342-2.132c1.051-0.942,2.577-1.351,3.691-2.213 c6.257-4.837,11.6-10.667,17.322-16.078c1.139-1.076,1.559-2.28,1.143-3.579c-1.045-3.271-2.687-6.349-4.53-9.222 c-1.461-2.275-2.723-4.698-4.244-6.935c-0.396-0.582-1.673-0.056-0.848-0.928c2.166,1.852,3.774,3.593,5.302,5.893 c1.555,2.34,3.438,4.201,4.942,6.709c1.19-0.051,1.736,0.342,2.893,0.23c8.794-0.857,17.544-2.02,26.018-4.465 c2.322-0.671,4.573-2.224,5.743-5.009c-2.065,0.698-4.074,1.087-6.047,0.944c-1.982-0.143-4.228,0.864-6.157,0.745 c-0.407-0.915,0.271-1.094,0.895-1.098c1.528-0.013,3.069-0.805,4.591-0.687c2.512,0.192,4.047-1.06,5.852-2.745 c1.633-1.523,4.503-2.139,5.418-4.251C125.452,139.775,124.936,138.942,125.159,138.596z" fill="#010101"/></g><g id="change1_47"><path d="M109.05,87.461c0.4,0.349,1.309,0.758,1.604,1.19c2.271,3.333,4.577,6.595,7.642,9.183 c5.649,4.772,10.121,10.289,13.083,17.092c2.145,4.928,5.434,9.09,9.443,12.649c0.438,0.389,0.908,0.749,1.365,1.114 c4.528,3.613,8.143,8.051,11.664,12.631c2.324,3.025,5.474,5.154,8.812,7.016c8.911,4.973,17.626,1.604,22.888-4.315 c0.736-0.828,1.19-2.06,2.727-2.38c-0.043,0.57-0.105,1.025-0.311,1.34c-4.188,6.394-13.28,11.333-22.537,7.85 c-4.345-1.635-8.447-3.682-11.474-7.277c-1.134-1.347-1.964-2.946-3.058-4.327c-2.418-3.049-5.128-5.866-8.112-8.36 c-1.172-0.978-2.494-1.781-3.622-2.812c-3.774-3.454-6.993-7.412-9.036-12.116c-3.056-7.036-7.595-12.752-13.483-17.626 c-3.002-2.485-5.32-5.626-7.454-8.906C108.86,88.902,108.352,88.159,109.05,87.461z" fill="#010101"/></g><g id="change1_2"><path d="M20.512,335.145c0.783-0.063,1.237-0.454,1.736-0.362c6.119,1.125,12.177,2.575,18.286,3.754 c2.676,0.515,5.197,1.374,7.483,2.866c3.349,2.181,4.34,4.137,3.479,8.038c-0.403,1.823-1.125,3.595-1.866,5.313 c-1.423,3.3-2.253,6.714-2.163,10.309c0.034,1.389-0.157,2.776-0.521,4.119c-0.698,2.582-2.244,4.378-4.893,4.834 c-5.928,1.025-11.841,1.441-17.812,0.107c-0.445-0.098-0.975-0.054-1.34-0.318c-0.197-0.143-0.119-0.452-0.293-0.989 c1.123,0.145,1.951,0.217,2.834,0.407c3.26,0.698,6.588,0.693,9.884,0.416c1.756-0.148,3.512-0.405,5.255-0.662 c3.318-0.488,4.826-2.291,5.246-5.595c0.089-0.698,0.421-1.392,0.4-2.096c-0.116-3.826,0.66-7.392,2.154-10.913 c0.732-1.723,1.085-3.609,1.559-5.421c0.714-2.72-0.103-4.949-2.468-6.456c-2.21-1.409-4.685-2.336-7.23-2.837 c-5.183-1.02-10.403-1.848-15.595-2.821c-1.152-0.215-2.342-0.313-3.465-0.647C20.929,336.116,20.924,335.659,20.512,335.145z" fill="#010101"/></g><g id="change1_48"><path d="M44.419,147.432c-0.727,0.617-1.002,1.004-1.421,1.358c-0.087,4.535,0.485,9.02-0.993,13.673 c-0.638,0.206-1.541,0.416-2.43,0.557c-6.606,1.043-12.595,3.653-18.038,7.557c-0.477,0.342-1.007,0.615-1.535,0.846 c-0.206,0.089-0.369-0.031-0.691-0.154c1.79-2.383,4.89-4.47,9.698-6.506c3.687-1.562,7.624-2.322,11.521-3.179 c0.794-1.745,1.13-3.629,1.081-5.387c-0.098-3.405-0.23-6.819-0.468-10.215c-0.063-0.888-0.45-1.886-0.87-2.7 c-1.566-3.022-3.577-5.814-5.192-8.812c-2.911-5.398-4.662-11.293-6.718-17.043c-0.15-0.423-0.174-0.463,0.302-2.087 c1.36,1.257,1.459,3.036,2.067,4.481c0.68,1.62,1.4,3.23,2.034,4.873c0.591,1.532,1.081,3.105,1.761,4.6 c0.729,1.602,1.443,3.213,2.244,4.781c0.747,1.465,1.6,2.875,2.378,4.322c0.834,1.55,1.481,3.213,2.371,4.732 C42.338,144.535,43.383,145.813,44.419,147.432z" fill="#010101"/></g><g id="change1_45"><path d="M192.088,382.736c-0.302-0.407-0.483-0.875-0.62-1.257c-1.609-4.535-3.322-9.034-4.904-13.577 c-0.154-0.443-0.394-0.857-0.562-1.295c-0.841-2.206-2.385-3.336-4.749-3.434c-1.175-0.049-2.349-0.286-3.526-0.28 c-2.642,0.018-4.629-1.016-6.333-2.989c-0.385-0.445-0.801-0.846-1.132-1.329c-1.819-2.647-4.512-3.145-7.519-2.741 c-5.403,0.725-10.168,2.745-14.067,6.609c-1.17,1.159-2.405,2.244-3.595,3.378c-0.353,0.338-0.785,0.635-1.358,0.884 c-0.056-0.47-0.094-0.716-0.009-0.828c2.011-2.622,4.338-4.884,6.998-6.861c3.682-2.736,7.817-4.244,12.282-4.843 c3.067-0.412,6.166,0.237,7.989,2.917c2.378,3.497,5.347,5.054,9.474,4.68c3.987-0.362,6.228,1.953,7.239,5.19 c1.365,4.367,2.924,8.676,4.421,13.002C192.406,380.789,193.023,381.722,192.088,382.736z" fill="#010101"/></g><g id="change1_56"><path d="M25.179,379.923c0.617-0.345,0.823-0.4,0.897-0.376c6.445,2.159,12.998,1.738,19.47,0.291 c5.141-1.152,10.242-2.541,15.3-4.029c2.774-0.817,5.685-1.579,7.602-4.103c0.072-0.094,0.515-0.132,0.66-0.022 c0.148,0.112,0.078,0.454,0.06,0.651c-0.083,0.886-0.492,1.537-1.228,1.946c-1.228,0.68-2.418,1.521-3.738,1.962 c-7.125,2.371-14.349,4.517-21.732,5.873c-4.04,0.743-8.237,0.535-12.336-0.034c-1.15-0.159-2.257-0.631-3.351-1.029 C26.298,380.872,25.805,380.438,25.179,379.923z" fill="#010101"/></g><g id="change1_50"><path d="M189.69,339.266c0.192,0.532,0.573,1.107,0.676,1.653c1.843,9.785,3.396,19.624,5.177,29.418 c0.333,1.837,0.559,3.694,0.725,5.562c0.029,0.34-0.083,0.678-0.19,1.002c-0.054,0.163-0.217,0.521-0.387,0.53 c-0.19,0.011-0.376-0.331-0.506-0.483c-0.136-0.161-0.239-0.356-0.253-0.573c-0.45-7.045-2.11-13.899-3.333-20.817 c-0.837-4.729-1.872-9.423-2.756-14.143C188.694,340.612,188.442,339.679,189.69,339.266z" fill="#010101"/></g><g id="change1_3"><path d="M37.533,421.452c0.588-1.362,1.494-1.709,2.349-1.857c2.186-0.378,4.427-0.64,6.635-0.662 c7.866-0.076,15.673-0.694,23.443-1.895c1.371-0.213,2.792-0.123,4.19-0.067c0.358,0.016,0.597,0.412,0.996,0.68 c-0.331,0.282-0.365,0.613-0.541,0.635c-3.481,0.418-6.98,0.709-10.472,1.004c-4.434,0.376-8.868,0.902-13.313,1.022 c-4.11,0.112-8.204,0.089-12.179,1.286C38.351,421.689,38.065,421.539,37.533,421.452z" fill="#010101"/></g><g id="change1_10"><path d="M39.897,428.637c3.262-0.394,5.989-1.04,8.779-1.253c2.922-0.221,5.866-0.226,8.788-0.11 c4.6,0.183,9.139-0.333,13.669-1.063c1.644-0.264,3.251-0.112,4.857,0.385c0.286,0.087,0.49,0.197,1.06,0.566 c-0.613,0.302-0.922,0.711-1.264,0.68c-3.192-0.293-6.295,0.226-9.43,0.723c-1.152,0.183-2.362,0.168-3.53,0.116 c-6.584-0.284-13.159-0.219-19.689,0.689c-0.904,0.125-1.832,0.163-2.747,0.049C40.213,429.398,40.137,429.076,39.897,428.637z" fill="#010101"/></g><g id="change1_7"><path d="M38.51,424.221c2.803-0.345,5.228-0.55,7.622-1.002c4.647-0.877,9.313-0.911,14-0.834 c4.707,0.074,9.345-0.577,13.987-1.235c0.705-0.101,1.613-0.074,1.861,1.116c-0.857,0.242-1.89,0.387-2.774,0.465 c-4.315,0.387-8.6,1.347-12.96,1.136c-5.17-0.248-10.284,0.06-15.38,1.029c-1.702,0.324-3.501,0.105-5.255,0.087 C39.309,424.98,39.047,424.678,38.51,424.221z" fill="#010101"/></g><g id="change1_31"><path d="M224.831,328.42c0.794,1.772,0.89,3.629,0.964,5.356c0.235,5.557,1.367,10.808,3.515,15.971 c1.474,3.544,2.369,7.349,3.452,11.052c0.253,0.864,0.454,1.94-0.125,2.917c-0.333-0.208-0.942-0.385-1.038-0.629 c-0.298-0.758-0.421-1.593-0.588-2.392c-0.913-4.371-2.465-8.521-4.215-12.62c-1.535-3.6-2.069-7.425-2.338-11.309 c-0.145-2.103-0.477-4.192-0.629-6.293C223.784,329.834,223.627,328.984,224.831,328.42z" fill="#010101"/></g><g id="change1_55"><path d="M227.858,327.145c0.57,0.924,0.955,1.21,1.016,1.506c0.922,4.468,1.758,8.958,2.606,13.441 c0.591,3.123,1.506,6.114,2.718,9.051c1.069,2.593,1.946,5.271,2.886,7.917c0.154,0.434,0.248,0.924,0.266,1.385 c0.007,0.168-0.259,0.483-0.427,0.544c-0.174,0.063-0.676,0.051-0.767-0.081c-0.257-0.374-0.271-0.911-0.432-1.338 c-1.197-3.175-2.485-6.315-3.694-9.486c-1.047-2.747-1.814-5.564-2.277-8.477c-0.568-3.579-1.383-7.116-2.103-10.673 c-0.161-0.794-0.221-1.622-0.255-2.432C227.384,328.169,227.657,327.764,227.858,327.145z" fill="#010101"/></g><g id="change1_8"><path d="M180.361,83.121c0.038,0.309,0.166,0.846,0.029,1.002c-0.62,0.696-1.353,1.284-2.085,1.859 c-1.752,1.38-3.45,2.83-5.233,4.172c-5.937,4.474-9.884,10.219-11.593,17.494c-0.107,0.456-0.282,0.904-0.492,1.315 c-0.13,0.257-0.436,0.468-0.68,0.474c-0.64,0.013-0.696-0.441-0.609-0.879c1.387-7.036,4.68-13.047,10.069-17.747 c3.092-2.696,6.535-4.982,9.794-7.481C179.71,83.22,180.025,83.152,180.361,83.121z" fill="#010101"/></g><g id="change1_42"><path d="M241.037,358.514c-0.253-0.624-0.557-1.192-0.689-1.843c-0.852-4.163-2.743-7.949-4.559-11.756 c-0.964-2.02-1.336-4.204-1.705-6.421c-0.555-3.345-1.396-6.64-1.993-9.978c-0.11-0.606-0.092-1.349-0.092-1.993 c1.016-0.013,1.244,0.682,1.356,1.233c0.7,3.436,1.535,6.852,2.076,10.315c0.349,2.23,0.913,4.347,1.884,6.362 c1.881,3.911,3.434,7.922,4.333,12.181c0.128,0.604,0.21,1.298,0.192,1.933C241.589,358.577,241.285,358.489,241.037,358.514z" fill="#010101"/></g><g id="change1_26"><path d="M210.124,58.143c0.615,0.353,1.103,0.761,1.582,1.051c4.597,2.803,9.195,5.609,13.749,8.481 c1.969,1.242,3.893,2.57,5.754,3.975c0.121,0.092-0.06,0.647-0.181,0.917c-0.043,0.094-0.427,0.114-0.573,0.02 c-2.468-1.568-4.949-3.119-7.43-4.667c-3.774-2.358-7.582-4.662-11.356-7.018c-0.685-0.427-1.293-1.007-1.866-1.579 C209.703,59.222,209.965,58.647,210.124,58.143z" fill="#010101"/></g><g id="change1_27"><path d="M125.159,138.73c-0.224,0.347-0.374,0.747-0.597,1.092c-1.26,0.226-2.011,1.19-2.841,1.984 c-2.26,2.166-4.922,3.152-7.991,2.993c-1.586-0.083-3.255,0.333-5.049-0.79c0.658-0.383,1.06-0.881,1.512-0.911 c1.047-0.072,2.11,0.132,3.163,0.192c2.955,0.17,5.526-0.642,7.624-2.843c0.89-0.935,1.886-1.772,2.763-2.72 c0.707-0.767,1.45-1.497,1.123-2.767c-0.054-0.206,0.557-0.832,0.915-0.911c0.376-0.081,1.009,0.163,1.217,0.452 c0.213,0.295,0.143,0.902-0.036,1.255C126.432,136.788,125.768,137.741,125.159,138.73z" fill="#010101"/></g><g id="change1_37"><path d="M58.235,363.228c2.076-1.367,3.687-2.409,5.282-3.555c0.944-0.678,1.81-1.481,2.669-2.275 c0.602-0.555,1.083-1.233,1.655-1.819c2.092-2.143,3.754-4.454,3.611-7.562c0.763-0.553,1.23-0.286,1.342,0.425 c0.264,1.691-0.139,3.277-1.083,4.642c-2.964,4.289-6.604,7.879-11.248,10.34C59.991,363.675,60.025,363.624,58.235,363.228z" fill="#010101"/></g><g id="change1_52"><path d="M119.193,132.334c0.17-0.897,0.289-1.671,0.609-2.369c0.503-1.092,1.562-1.398,2.622-0.872 c0.984,0.488,1.304,1.622,0.501,2.327c-4.047,3.557-8.609,6.047-14.114,6.434c-0.19,0.013-0.351-0.136-0.772-0.349 c1.705-1.541,3.911-1.369,5.752-2.163C115.734,134.502,117.569,133.56,119.193,132.334z" fill="#010101"/></g><g id="change1_11"><path d="M27.866,161.661c-0.461,0.338-0.767,0.805-1.136,0.868c-4.477,0.761-8.537,2.396-12.096,5.242 c-0.405,0.324-0.937,0.425-1.192-0.107c-0.105-0.221,0.072-0.765,0.282-0.962c0.593-0.559,1.313-0.978,1.98-1.452 c2.72-1.931,5.765-3.121,8.953-3.931C25.584,161.086,26.682,160.795,27.866,161.661z" fill="#010101"/></g><g id="change1_46"><path d="M181.531,351.968c0-0.877-0.152-1.492,0.007-1.991c1.392-4.327,2.611-8.743,4.949-12.586 c0.779-0.092,1.195,0.291,1.016,0.781c-1.6,4.392-3.271,8.756-4.931,13.128C182.511,351.458,182.22,351.547,181.531,351.968z" fill="#010101"/></g><g id="change1_32"><path d="M57.052,368.809c1.32-1.197,2.937-1.255,4.172-2.038c1.282-0.81,2.579-1.595,3.823-2.459 c1.226-0.85,2.383-1.823,3.866-2.991c0.027,0.707,0.235,1.289,0.051,1.485c-2.984,3.233-6.548,5.541-10.897,6.501 C57.848,369.36,57.56,369.076,57.052,368.809z" fill="#010101"/></g><g id="change1_1"><path d="M31.271,275.807c0.13-0.174,0.23-0.383,0.403-0.461c0.181-0.083,0.438-0.081,0.617,0.013 c3.494,1.834,6.982,3.676,10.461,5.539c0.192,0.103,0.351,0.306,0.503,0.481c-0.022,0.611-0.501,0.879-0.928,0.671 c-3.647-1.783-7.447-3.282-10.77-5.671C31.403,276.265,31.372,275.999,31.271,275.807z" fill="#010101"/></g><g id="change1_13"><path d="M186.095,335.966c-2.644,3.832-5.286,7.669-7.953,11.486c-0.072,0.103-0.485,0.002-0.817,0.002 c-0.025-0.311-0.163-0.738-0.025-0.946c2.394-3.604,4.785-7.215,7.244-10.774c0.186-0.271,0.741-0.345,1.112-0.488 C185.788,335.46,185.963,335.755,186.095,335.966z" fill="#010101"/></g><g id="change1_5"><path d="M87.893,306.541c2.667-0.116,5.255,1.604,6.494,3.682c-0.179,0.107-0.434,0.365-0.521,0.313 c-1.597-0.949-3.159-1.955-4.72-2.96C88.689,307.281,88.305,306.905,87.893,306.541z" fill="#010101"/></g><g id="change1_34"><path d="M94.195,123.15c0.284-0.875,0.497-1.497,0.747-2.26c0.405,0.251,0.801,0.351,0.908,0.586 c0.499,1.083,0.19,2.043-0.689,2.79c-0.792,0.671-1.841,0.64-2.881-0.11c-0.23-0.166-0.427-0.624-0.371-0.888 c0.121-0.582,0.588-0.526,1.067-0.358C93.287,123.018,93.625,123.034,94.195,123.15z" fill="#010101"/></g><g id="change1_38"><path d="M120.486,121.678c0.123,1.338-0.564,2.166-1.535,2.219c-0.617,0.036-1.452-0.555-1.577-1.123 c-0.219-0.998,0.752-2.219,1.779-2.034C119.703,120.839,120.164,121.441,120.486,121.678z" fill="#010101"/></g><g id="change1_35"><path d="M166.108,360.503c-0.667,0.463-1.049,0.899-1.501,0.991c-0.642,0.128-1.295-0.738-1.089-1.351 c0.197-0.582,0.676-0.996,1.271-0.796C165.218,359.489,165.533,359.973,166.108,360.503z" fill="#010101"/></g><g id="change1_43"><path d="M43.222,368.454c0.013,1.051-0.53,1.736-1.224,1.608c-0.345-0.063-0.805-0.497-0.884-0.834 c-0.157-0.68,0.535-1.416,1.21-1.329C42.689,367.943,43.007,368.31,43.222,368.454z" fill="#010101"/></g><g id="change1_39"><path d="M46.428,347.337c-0.036,1.031-0.653,1.638-1.365,1.432c-0.333-0.096-0.74-0.566-0.792-0.915 c-0.105-0.711,0.638-1.345,1.331-1.166C45.962,346.782,46.237,347.181,46.428,347.337z" fill="#010101"/></g><g id="change1_53"><path d="M181.144,368.979c-0.57-0.711-0.996-1.056-1.157-1.503c-0.177-0.488,0.53-1.244,0.989-1.083 c0.376,0.132,0.913,0.539,0.922,0.839C181.909,367.691,181.522,368.154,181.144,368.979z" fill="#010101"/></g></g><g><g id="change1_54"><path d="M35.235,51.799c1.651,1.394,2.877,3.275,4.427,4.289c1.512,0.987,2.958,1.389,4.774,2.266 c-1.859,0.774-1.978,0.593-4.4-0.83c-1.508-0.886-2.971-1.77-4.577-2.89c-3.81,1.783-7.336,0.3-10.77-1.696 c-2.018-1.172-4.21-2.208-5.913-3.794c-2.644-2.463-2.66-5.787-0.828-8.633c0.94-1.461,2.013-2.145,3.839-2.186 c0.702-0.016,1.423-0.345,2.114-0.461c2.77-0.468,5.432-1.271,8.358-1.792c0.148-0.81,0.805-1.329,0.924-2.116 c0.523-3.468,2.188-5.591,5.441-6.673c3.065-1.02,6.025-0.998,8.562,1.21c0.611,0.53,0.998,1.539,1.718,2.226 c0.595-0.34,1.049-0.996,1.593-1.306c-0.324-3.235-2.568-6.3-0.148-9.958c0.268,0.837,0.96,1.365,0.915,1.734 c-0.271,2.286,0.025,4.322,0.913,6.409c0.069,0.161,0.121,0.23,0.304,0.349c0.877-0.53-0.04-1.17-0.047-1.785 c-0.04-4.087,2.642-6.886,6.293-8.374c4.047-1.651,9.584,0.235,11.197,4.497c1.604,4.242-0.385,9.727-4.508,11.624 c-2.226,1.025-4.832,0.966-7.141-0.054c-0.85-0.376-1.638-1.302-2.501-1.716c-0.642,0.667,0.221,1.257,0.481,1.655 c0.385,0.588,1.26,0.87,1.629,1.465c0.98,1.579,0.573,2.886-1.311,4.958c-0.11-0.553-0.159-1.114-0.031-1.416 c0.595-1.412-0.157-2.781-1.112-3.814c-1.192-1.289-2.403-2.611-3.702-4.087c-0.649,0.311-1.432,0.689-2.101,1.011 c0.318,2.888,0.647,5.691-1.195,8.168c-1.161,1.564-2.555,2.875-4.398,3.445c-4.38,1.353-7.875-0.378-11.257-5.463 c-2.199-0.436-4.186,0.917-6.548,0.781c-0.078,0.667-0.365,0.946-0.427,1.49c-0.584,0.398-0.6-0.119-1.105-0.474 c-1.474-1.043-3.058-0.732-4.586,0.564c-1.488,1.262-2.617,3.427-1.924,5.282c0.282,0.756,1.248,1.112,1.814,1.647 c3.025,2.846,5.924,5.949,10.143,6.714C32.671,54.517,33.038,53.763,35.235,51.799z M67.891,25.416 c-0.067-3.734-2.68-6.79-6.405-6.908c-3.197-0.101-7.32,3.02-7.262,7.237c0.045,3.248,3.398,7.016,7.591,6.772 C65.486,32.302,67.96,29.195,67.891,25.416z M34.915,34.803c-0.159,3.754,2.28,7.206,6.029,7.369 c4.009,0.174,7.474-2.982,7.667-6.902c0.177-3.62-3.336-7.072-7.016-7.128C37.553,28.078,35.105,31.152,34.915,34.803z" fill="#010101"/></g><g id="change1_12"><path d="M59.902,56.266c0.447,0.072,0.924,0.027,1.427,0.081c0.15-0.915,0.219-1.758,0.374-2.694 c0.937-0.13,1.897-0.181,2.922-0.322c-0.168-1.007-0.329-1.917-0.499-2.926c0.575-0.365,1.081-0.779,1.839-1.26 c-0.027-0.454,0.224-0.991,0.157-1.541c-0.136-1.119,0.248-1.783,1.168-2.204c0.257-0.119,0.709-0.087,0.906,0.065 c0.512,0.394,0.246,0.821-0.078,1.181c-0.157,0.174-0.427,0.349-0.66,0.655c1.172,3.273,0.841,6.541-0.606,9.711 c-1.964,4.302-5.763,6.228-10.376,5.394c-1.72-0.311-3.434-0.635-5.38-0.989c-0.383-0.588-0.902-1.338-1.427-2.143 c-0.647-0.123-1.342-0.224-2.114-0.369c0.172-0.398,0.286-0.864,0.506-0.958c0.729-0.311,1.517-0.582,2.387-0.839 c0.573,0.888,1.047,1.837,1.624,2.734c0.834-0.924,1.586-1.866,2.389-2.756c0.814,0.447,1.506,0.792,2.188,1.168 c0.21-0.15,0.443-0.244,0.521-0.416c0.899-1.96,0.919-1.922,2.738-1.626" fill="#010101"/></g><g id="change1_57"><path d="M73.457,48.027c0.774,1.306,1.79,2.526,2.521,3.857c0.808,1.47,0.803,3.293,0.734,4.96 c-0.327,7.72-3.143,14.293-9.541,18.868c-2.539,1.817-5.499,2.387-8.66,2.568c-4.085,0.237-7.866-0.239-11.483-2.221 c-1.875-1.029-3.671-2.141-4.969-3.852c-1.013-1.336-1.611-2.852-1.539-4.575c0.02-0.501,0.228-1.121,0.391-1.548 c0.933,0.043,0.803,0.727,0.812,1.132c0.049,2.43,1.488,4.154,3.213,5.687c2.729,2.425,5.926,3.774,9.515,4.076 c8.647,0.729,15.808-3.441,19.172-11.477c1.098-2.624,1.418-5.468,1.523-8.313c0.067-1.805-0.434-3.405-1.36-4.969 c-0.539-0.908-0.655-2.034-1.096-2.989c-0.136-0.293-0.282-0.673-0.221-1.058C72.712,48.15,73.211,48.047,73.457,48.027z" fill="#010101"/></g><g id="change1_28"><path d="M64.423,40.671c-0.593,0.638-1.105,1.271-1.81,1.819c-3.682,2.859-7.77,4.781-12.318,5.705 c-0.418,0.085-0.423-0.011-1.418-0.937c0.438-0.23,0.787-0.57,1.204-0.651c4.819-0.937,9.228-2.765,12.935-6.022 C63.49,40.163,63.781,39.855,64.423,40.671z" fill="#010101"/></g><g id="change1_29"><path d="M41.754,20.575c-0.799,0.711-1.004,1.197-1.271,1.248c-2.398,0.472-4.34,1.633-6.06,3.313 c-0.881,0.861-1.846,1.016-2.058,0.492c-0.327-0.805,0.168-1.356,0.62-1.839C35.146,21.468,37.698,19.967,41.754,20.575z" fill="#010101"/></g><g id="change1_51"><path d="M19.772,44.671c-0.049-1.336,0.725-1.562,1.546-1.705c0.96-0.168,1.966-0.159,2.635,0.633 c0.443,0.526,0.705,1.219,0.888,1.866c0.517,1.819,1.604,3.051,3.537,3.472c0.128,0.027,0.186,0.425,0.275,0.633 c-2.163,0.613-3.23,0.206-4.21-1.617c-0.6-1.114-1.056-2.333-1.633-3.638C21.718,44.432,20.738,44.571,19.772,44.671z" fill="#010101"/></g><g id="change1_33"><path d="M59.034,11.884c-0.32,1.521-1.374,1.718-2.125,2.175c-0.899,0.548-1.821,1.06-2.707,1.631 c-0.758,0.49-1.477,1.045-2.145,1.535c-0.857-0.503-0.64-1.011-0.266-1.515C53.53,13.369,55.571,11.557,59.034,11.884z" fill="#010101"/></g><g id="change1_49"><path d="M57.468,48.895c-0.403,0.32-0.714,0.57-1.029,0.821c-0.177-0.251-0.501-0.508-0.49-0.749 c0.02-0.4,0.04-1.038,0.72-0.888C56.922,48.134,57.103,48.51,57.468,48.895z" fill="#010101"/></g><g id="change1_44"><path d="M59.904,48.495c-0.461,0.186-0.902,0.423-0.933,0.376c-0.233-0.353-0.454-0.747-0.519-1.157 c-0.018-0.112,0.492-0.3,0.761-0.456C59.419,47.622,59.613,47.98,59.904,48.495z" fill="#010101"/></g><g id="change1_40"><path d="M59.237,39.559c0.286,0.143,0.653,0.266,0.644,0.34c-0.029,0.26-0.159,0.526-0.322,0.734 c-0.04,0.049-0.53-0.125-0.528-0.19C59.041,40.157,59.157,39.868,59.237,39.559z" fill="#010101"/></g><g id="change1_30"><path d="M55.819,42.618c-0.635,0.309-0.911,0.499-1.204,0.564c-0.15,0.034-0.497-0.157-0.492-0.224 c0.02-0.268,0.094-0.711,0.242-0.752C54.604,42.141,54.924,42.336,55.819,42.618z" fill="#010101"/></g><g id="change1_36"><path d="M51.282,44.179c0.188-0.268,0.349-0.588,0.412-0.57c0.273,0.076,0.517,0.248,0.774,0.389 c-0.112,0.19-0.251,0.559-0.327,0.546C51.85,44.492,51.58,44.316,51.282,44.179z" fill="#010101"/></g><g id="change1_14"><path d="M62.143,39.689c-0.195,0.054-0.405,0.179-0.579,0.143c-0.114-0.025-0.177-0.282-0.264-0.432 c0.181-0.063,0.389-0.215,0.535-0.168C61.971,39.275,62.043,39.528,62.143,39.689z" fill="#010101"/></g><g id="change1_4"><path d="M61.96,27.75c-0.443-1.521-0.77-2.626-1.134-3.879c-1.705,0.043-1.908,1.761-2.982,2.501 c-0.74-0.056-1.116-0.407-0.723-1.081c0.468-0.801,1.004-1.655,1.716-2.195c0.803-0.609,1.834-1.011,2.828-1.246 c0.899-0.213,1.298,0.141,3.085,1.702C63.781,24.747,64.62,27.034,61.96,27.75z" fill="#010101"/></g><g id="change1_41"><path d="M37.076,36.166c0.204-2.803,1.387-4.136,3.911-4.832c2.481-0.682,3.913,0.774,5.286,2.685 c-0.716,0.935-1.412,1.752-2.031,2.562c-1.036,0.121-1.385-0.329-1.564-1.063c-0.19-0.781-0.336-1.546-0.474-2.492 C39.817,32.463,38.897,34.611,37.076,36.166z" fill="#010101"/></g></g></g></svg>