<?xml version="1.0" encoding="UTF-8" standalone="no"?><svg xmlns="http://www.w3.org/2000/svg" xmlns:xlink="http://www.w3.org/1999/xlink" fill="#000000" height="296.9" preserveAspectRatio="xMidYMid meet" version="1" viewBox="-0.1 -0.3 500.1 296.9" width="500.1" zoomAndPan="magnify"><g><g fill="#010101" id="change1_13"><path d="M123.021,230.188c0.415,1.134,0.865,2.25,1.234,3.391c0.929,2.875,1.877,5.745,2.711,8.648 c0.71,2.474,2.094,4.354,4.42,5.457c4.185,1.985,7.421,5,9.926,8.865c0.561,0.865,1.285,1.629,1.967,2.41 c0.557,0.637,0.734,1.338,0.584,2.162c-0.28,1.546-0.759,3.034-1.569,4.37c-0.939,1.55-1.993,3.031-3.02,4.526 c-0.937,1.365-2.263,1.778-3.858,1.525c-1.279-0.203-2.559-0.462-3.847-0.53c-2.028-0.108-2.867,0.637-3.104,2.64 c-0.101,0.855-0.123,1.731-0.068,2.591c0.211,3.3-0.847,6.06-3.152,8.463c-2.277,2.373-4.446,4.848-7.021,6.915 c-1.555,1.249-3.196,2.363-5.02,3.188c-1.277,0.577-2.611,0.836-4.02,0.859c-3.046,0.049-4.277-2.11-4.53-4.065 c-0.167-1.285-0.181-2.595,0.293-3.847c0.488-1.29,0.945-2.595,1.488-3.862c0.715-1.666,1.505-3.298,2.255-4.949 c1.238-2.726,1.715-5.562,1.606-8.574c-0.155-4.257-0.918-8.42-1.643-12.587c-1.096-6.3-2.323-12.578-3.498-18.864 c-0.141-0.755-0.306-1.506-0.451-2.217c0.451-0.514,0.777-0.38,1.073,0.043c0.191,0.272,0.38,0.545,0.42,0.602 c1.068-1.068,2.093-2.093,3.251-3.252c-0.496-0.875-1.493-1.582-2.291-2.456c-0.464-0.508-0.944-1.001-1.386-1.527 c-0.071-0.085-0.031-0.356,0.055-0.456c0.092-0.106,0.339-0.195,0.451-0.144c0.305,0.138,0.619,0.31,0.85,0.546 c1.091,1.11,2.156,2.247,3.333,3.483C114.199,230.523,118.186,228.9,123.021,230.188z"/><path d="M32.29,228.391c-0.744-0.644-1.541-0.887-2.443-0.862c-0.691,0.019-1.385-0.037-2.076-0.011 c-5.321,0.196-10.234-1.269-14.919-3.654c-0.999-0.508-1.914-1.233-2.96-1.579c-1.13-0.374-1.573-1.456-2.531-1.985 c-0.965-0.532-1.83-1.25-2.72-1.911c-0.344-0.256-0.712-0.531-0.942-0.881c-1.228-1.869-2.562-3.683-3.322-5.817 c-0.511-1.433-0.474-2.895-0.051-4.337c0.25-0.854,0.772-1.366,1.703-1.725c2.216-0.856,4.416-0.716,6.629-0.268 c2.363,0.479,4.688,1.146,7.05,1.629c3.756,0.767,7.532,0.909,11.334,0.244c1.709-0.299,3.203-1.131,4.716-1.848 c1.047-0.496,1.896-1.481,2.722-2.352c0.95-1.001,1.836-2.076,2.645-3.195c1.182-1.636,2.719-2.884,4.288-4.091 c1.741-1.338,3.628-1.781,5.836-1.067c2.659,0.859,5.149,1.996,7.36,3.69c0.813,0.623,1.564,1.373,2.193,2.182 c1.491,1.92,1.837,4.054,0.87,6.336c-0.337,0.794-0.678,1.587-1.04,2.37c-1.754,3.79-2.994,7.733-3.373,11.905 c-0.466,5.128-2.828,9.364-6.064,13.203c-1.306,1.549-2.826,2.821-4.888,3.199c-0.657,0.12-1.376,0.152-2.025,0.021 c-2.212-0.447-4.281-1.314-6.279-2.351c-0.229-0.119-0.451-0.256-0.663-0.403c-1.567-1.084-1.909-1.946-1.354-3.759 C32.236,230.249,32.636,229.471,32.29,228.391z"/></g><g id="change1_31"><path d="M378.06 166.245L377.588 170.814 375.038 201.866 371.949 232.618 370.467 256.722 369.229 280.843 368.866 290.712 367.404 293.284 364.821 294.622 362.78 295.197 362.634 290.816 362.914 288.489 361.826 214.209 361.535 139.93 361.742 117.077 363.643 112.169 365.972 110.278 367.691 109.544 369.775 109.336 437.046 108.944 492.108 110.513 494.74 109.114 498.667 113.092 499.268 116.564 498.73 136.04 500 139.936 499.789 214.086 498.779 288.236 499.535 292.391 498.256 294.174 494.394 293.404 493.86 290.743 492.501 274.704 491.509 256.813 489.624 240.03 488.285 222.166 486.409 205.643 485.206 187.769 484.655 170.367 483.274 166.731 483.263 166.72 483.331 165.852 442.037 166.529 378.665 166.728z" fill="#010101"/></g><linearGradient gradientUnits="userSpaceOnUse" id="a" x1="430.995" x2="430.995" xlink:actuate="onLoad" xlink:show="other" xlink:type="simple" y1="137.631" y2="95.771"><stop offset="0.234" stop-color="#046463"/><stop offset="0.571" stop-color="#0390a7"/></linearGradient><path d="M430.751,95.797c4.496,0,8.994,0.071,13.488-0.022c3.576-0.074,6.713,0.934,9.77,2.801 c4.411,2.695,6.937,6.598,8.115,11.456c1.032,4.258,1.075,8.599-0.006,12.845c-1.982,7.781-7.092,12.418-14.866,14.177 c-2.024,0.458-4.078,0.591-6.164,0.576c-7.263-0.053-14.526-0.045-21.789-0.008c-2.625,0.014-5.132-0.56-7.615-1.288 c-0.904-0.265-1.729-0.791-2.629-1.074c-0.899-0.282-1.584-0.846-2.35-1.334c-0.871-0.555-1.48-1.339-2.191-2.021 c-3.654-3.502-5.447-7.818-5.418-12.887c0.01-1.816,0.052-3.633-0.009-5.447c-0.09-2.664,0.578-5.149,1.753-7.49 c0.77-1.535,1.668-3.017,2.641-4.433c0.517-0.753,1.097-1.57,2.1-1.829c0.941-0.243,1.024-1.676,2.203-1.59 c2.732-1.752,5.737-2.465,8.963-2.443C421.413,95.821,426.082,95.797,430.751,95.797z" fill="url(#a)"/><g id="change1_40"><path d="M172.305 205.27L172.046 290.585 172.666 291.56 173.649 289.416 174.859 292.028 200.316 289.595 201.255 290.822 200.884 296.613 139.869 295.553 138.247 295.524 138.294 289.782 146.107 291.698 152.853 291.593 159.865 290.02 166.801 291.145 168.2 287.918 168.223 229.48 167.396 208.442 167.278 204.995 161.048 205.915 139.284 204.943 114.419 200.355 99.154 196.169 88.952 187.387 83.138 182.319 81.351 175.132 85.558 164.653 87.952 159.65 89.934 157.114 94.753 149.416 96.285 146.357 98.079 144.047 99.947 142.315 103.928 138.11 104.143 138.234 107.381 132.487 114.676 126.81 115.102 123.445 116.972 120.983 118.489 119.03 124.63 114.096 127.971 105.962 131.886 102.062 135.671 93.559 137.547 90.546 142.563 80.718 147.47 71.701 153.986 60.291 154.586 57.672 159.783 53.422 165.539 44.709 166.402 43.121 167.561 38.657 167.644 38.089 175.959 31.765 177.786 28.669 181.798 27.195 183.656 25.779 185.609 24.681 195.145 21.85 210.24 21.162 225.68 33.154 234.192 48.636 239.654 71.13 242.784 88.506 243.824 110.843 245.455 134.037 245.525 148.79 240.828 171.914 233.123 183.827 209.349 197.579 188.095 204.872 176.442 205.693z" fill="#010101"/></g><g id="change2_2"><path d="M165.699,43.384c-1.107-0.442-2.062-0.824-2.963-1.183c-0.128-0.205-0.28-0.34-0.299-0.492 c-0.334-2.593-1.125-5.017-2.305-7.367c-2.712-5.403-3.492-11.183-3.033-17.167c0.216-2.824,1.266-5.378,2.584-7.828 c0.308-0.573,0.863-1.087,1.424-1.438c3.625-2.273,7.595-3.715,11.721-4.773c3.198-0.82,6.48-1.064,9.732-1.526 c2.063-0.293,3.95,0.043,5.754,1.015c4.458,2.403,7.693,5.823,9.022,10.837c0.475,1.791,0.452,3.594,0.222,5.408 c-0.153,1.203-0.144,2.392-0.064,3.612c0.224,3.415-0.265,6.717-1.962,9.779c-0.752,1.358-1.357,2.797-2.024,4.202 c-0.334,0.703-0.681,1.401-0.979,2.118c-0.827,1.987-2.122,3.298-4.429,3.403c-0.666,0.03-1.332,0.357-1.969,0.619 c-0.569,0.233-0.722,0.799-0.522,1.293c0.135,0.332,0.568,0.727,0.9,0.758c0.853,0.079,1.732,0.037,2.585-0.075 c2.658-0.347,5.307-0.755,7.962-1.128c6.34-0.89,12.695-1.536,19.098-1.875c5.331-0.282,9.119,2.096,12.315,5.929 c1.398,1.676,2.302,3.647,3.15,5.648c2.966,6.999,4.543,14.327,5.371,21.857c0.71,6.459,1.222,12.924,1.286,19.423 c0.004,0.431-0.02,0.886,0.11,1.284c0.086,0.264,0.423,0.445,0.702,0.716c1.268-1.171,1.907-2.602,2.558-3.992 c1.799-3.839,3.551-7.701,5.273-11.576c2.571-5.787,5.745-11.248,8.943-16.696c1.108-1.887,2.559-3.462,4.453-4.63 c3.755-2.315,7.477-4.683,11.216-7.025c0.366-0.229,0.741-0.448,1.126-0.643c1.646-0.833,1.983-0.713,3.003,1.149 c0.532-0.115,1.107-0.23,1.678-0.363c2.188-0.512,4.364-1.089,6.568-1.521c1.093-0.214,2.238-0.218,3.359-0.211 c0.366,0.002,0.854,0.249,1.067,0.542c0.355,0.49,0.059,1.034-0.345,1.37c-0.66,0.547-1.333,1.152-2.108,1.473 c-1.832,0.76-3.723,1.379-5.599,2.031c-0.716,0.249-1.455,0.432-2.251,0.665c0.07,2.639,0.136,5.12,0.202,7.603 c2.221,1.378,2.303,1.605,1.332,4.121c-0.405,1.048-0.822,2.097-1.324,3.1c-0.205,0.409-0.652,0.697-1.126,1.18 c-0.416-0.542-0.719-0.925-1.01-1.318c-0.25-0.338-0.486-0.686-0.781-1.105c-0.453,0.215-0.882,0.327-1.198,0.582 c-2.977,2.398-6.206,4.347-9.63,6.076c-3.26,1.646-2.794,0.772-3.057,4.671c-0.402,5.968-1.346,11.858-2.309,17.755 c-0.98,6.004-2.706,11.804-4.411,17.616c-1.172,3.996-2.793,7.826-4.588,11.566c-1.828,3.809-4.591,6.895-8.144,9.208 c-1.819,1.185-3.854,1.928-5.957,2.449c-1.917,0.475-3.774,0.039-5.606-0.511c-0.316-0.095-0.688-0.245-0.876-0.491 c-1.248-1.633-2.995-2.76-4.153-4.538c-2.14-3.287-3.626-6.835-4.936-10.488c-2.841-7.919-4.916-16.05-6.705-24.259 c-0.11-0.506-0.196-1.02-0.342-1.516c-0.158-0.54-0.871-0.748-1.239-0.314c-0.944,1.115-1.827,2.282-2.729,3.433 c-0.906,1.156-1.757,2.36-2.729,3.457c-0.563,0.636-1.298,1.129-1.995,1.632c-0.261,0.188-0.744,0.411-0.934,0.297 c-1.058-0.634-2.01,0.047-3.007,0.108c-0.766,0.047-1.564-0.002-2.313-0.168c-3.462-0.769-6.905-1.623-10.369-2.383 c-1.343-0.295-2.72-0.581-4.085-0.6c-9.954-0.142-19.909-0.216-29.864-0.31c-0.859-0.008-1.719-0.001-2.377-0.001 c-1.059,0.856-1.34,1.895-1.8,2.81c-2.757,5.481-5.708,10.851-9.12,15.955c-0.667,0.998-1.428,1.964-2.291,2.794 c-1.329,1.278-2.949,2.042-4.79,2.415c-2.465,0.499-4.926,0.921-7.451,0.971c-1.553,0.031-3.103,0.23-4.655,0.335 c-5.267,0.356-10.536,0.779-15.811,0.179c-1.37-0.156-2.725-0.449-4.04-0.671c-0.61-0.839-0.632-1.646-0.238-2.493 c0.545-1.172,1.082-2.348,1.693-3.679c0.715,0.777,1.367,1.486,2.148,2.335c0.305-0.41,0.54-0.726,0.822-1.107 c0.301,0.12,0.665,0.265,1.026,0.409c1.136-0.4,1.51-1.291,1.436-2.237c0.828-1.026,1.774-0.088,2.615-0.492 c0.043-0.213,0.193-0.489,0.122-0.684c-0.821-2.249-1.732-4.462-2.937-6.538c-0.611-1.053-0.677-2.065-0.149-3.188 c1.287-2.738,2.51-5.506,3.762-8.261c1.86-4.092,3.729-8.181,5.583-12.275c3.038-6.708,6.488-13.198,10.173-19.571 c1.607-2.779,3.778-4.928,6.581-6.458c1.139-0.621,2.278-1.246,3.444-1.813c4.9-2.378,9.641-5.083,14.695-7.15 c1.036-0.424,1.983-1.062,2.999-1.541c0.695-0.328,1.421-0.628,2.165-0.808c2.301-0.558,4.281-1.811,6.336-2.888 c0.491-0.257,0.919-0.829,1.147-1.355C165.968,47.158,166.308,45.397,165.699,43.384z" fill="#e0e111"/></g><g id="change3_2"><path d="M135.665 124.547L137.035 118.886 133.898 118.535 134.76 117.672 136.513 115.066 138.429 111.065 133.671 102.854 131.935 93.328 131.903 87.656 137.563 80.336 140.12 75.395 143.326 72.865 145.18 69.672 147.341 66.569 151.096 60.833 154.139 54.755 158.045 52.068 158.676 54.348 164.882 74.081 165.881 77.758 167.939 76.277 177.631 65.77 195.291 47.804 200.641 42.614 202.996 42.541 205.932 41.434 206.492 43.459 201.383 70.149 199.964 73.861 201.91 80.273 203.027 86.904 207.681 97.539 208.626 102.905 204.85 108.664 201.849 113.241 202.057 116.652 202.065 118.633 206.856 134.818 208.066 145.823 203.807 160.321 199.75 170.572 194.311 179.046 182.029 187.885 170.141 189.287 158.184 190.724 134.565 185.435 121.883 183.639 118.025 183.967 116.07 184.24 118.687 187.252 116.042 189.836 118.305 193.742 120.632 202.526 127.401 224.304 129.071 231.086 129.875 232.882 120.869 235.663 107.538 239.041 99.212 243.322 90.477 246.159 82.736 245.591 81.52 245.021 69.098 241.371 68.765 241.541 69.007 240.17 68.86 229.235 69.598 220.178 69.361 219.435 68.053 219.266 59.815 217.887 53.163 213.112 49.234 208.788 45.344 205.892 42.354 205.37 39.657 203.962 37.862 201.532 35.123 200.41 30.827 194.201 28.452 185.6 28.729 183.589 32.911 180.579 38.565 174.807 51.651 159.32 60.602 149.838 76.748 131.306 96.216 122.249 110.404 120.404 120.029 120.767 128.222 122.196 133.46 123.661z" fill="#f4f4f4"/></g><g fill="#010101" id="change1_21"><path d="M456.157,100.486c-1.419,1.437-2.538,2.938-3.995,3.956c-1.892,1.322-3.949,2.445-6.196,3.173 c-2.889,0.936-5.841,1.551-8.83,2.034c-0.677,0.109-1.34,0.3-2.014,0.428c-0.401,0.076-0.82,0.181-1.215,0.135 c-0.81-0.094-1.51,0.071-2.228,0.469c-0.415,0.23-1.15,0.44-1.444,0.235c-1.521-1.063-3.305-0.962-4.967-1.157 c-5.203-0.611-10.179-1.966-14.786-4.422c-1.933-1.031-3.6-2.582-4.902-4.505c0.25-0.887,0.716-1.54,1.623-1.819 c2.535,2.995,5.657,4.996,9.427,5.972c0.25,0.065,0.516,0.097,0.743,0.209c5.295,2.616,10.958,2.918,16.691,2.532 c4.607-0.31,9.037-1.486,13.212-3.469c1.6-0.76,3.107-1.74,4.574-2.741c0.528-0.36,0.8-1.086,1.217-1.622 c0.766-0.985,1.227-0.999,2.32-0.101C455.579,99.952,455.76,100.128,456.157,100.486z"/><path d="M434.793,105.167c-2.505,1.208-5.021,1.24-7.667,0.063c0.031-0.553,0.059-1.051,0.089-1.583 c1.93-1.085,3.924-1.206,5.971-0.707C434.43,103.243,434.684,103.654,434.793,105.167z"/><path d="M439.844,100.069c1.926-1.062,3.552-1.364,5.283-1.2c1.22,0.115,2.39,0.344,3.025,1.584 c-0.555,1.096-1.544,1.537-2.676,1.728c-1.371,0.231-2.767,0.343-4.01-0.404C440.936,101.458,440.575,100.858,439.844,100.069z"/><path d="M417.501,98.769c0.628,0.169,1.639,0.375,2.59,0.737c0.308,0.117,0.631,0.639,0.637,0.98 c0.006,0.346-0.293,0.832-0.602,1.018c-0.499,0.3-1.104,0.466-1.686,0.581c-1.561,0.309-3.081,0.059-4.579-0.425 c-0.478-0.155-0.773-0.473-0.72-0.923c0.045-0.382,0.218-0.866,0.503-1.08C414.657,98.895,415.895,98.89,417.501,98.769z"/><path d="M427.934,97.264c1.367-0.585,2.819-0.404,4.25-0.327c0.394,0.021,0.79,0.273,1.157,0.472 c0.355,0.193,0.358,0.854,0.032,1.107c-0.134,0.104-0.279,0.198-0.43,0.275c-1.549,0.79-3.112,0.743-4.655,0.006 C427.604,98.471,427.586,97.909,427.934,97.264z"/></g><g id="change4_1"><path d="M499.55,150.549c-2.376,0.703-134.825,0.716-137.073,0.431c-0.234-0.585,0.117-0.787,0.596-0.816 c0.69-0.042,1.384-0.026,2.076-0.026c43.81-0.001,87.62-0.001,131.43,0.002c0.778,0,1.558,0.009,2.333,0.067 C499.132,150.223,499.338,150.43,499.55,150.549z" fill="#046463"/></g><linearGradient gradientUnits="userSpaceOnUse" id="b" x1="63.743" x2="173.076" xlink:actuate="onLoad" xlink:show="other" xlink:type="simple" y1="90.04" y2="90.04"><stop offset="0.234" stop-color="#046463"/><stop offset="0.571" stop-color="#0390a7"/></linearGradient><path d="M173.076,117.186 c-0.538,1.286-1.331,1.821-2.519,1.747c-0.345-0.021-0.692-0.003-1.039,0.001c-22.857,0.225-45.715,0.447-68.572,0.679 c-4.416,0.045-8.831,0.123-13.246,0.194c-1.215,0.019-2.425,0.029-3.723-0.625c-1.431-3.915-2.913-7.962-4.39-12.011 C74.693,93.766,69.8,80.362,64.912,66.957c-0.355-0.975-0.73-1.947-1.004-2.946c-0.494-1.805,0.117-2.686,1.907-2.824 c0.603-0.047,1.212-0.019,1.818-0.025c18.615-0.197,37.23-0.39,55.844-0.592c8.745-0.095,17.489-0.207,26.233-0.301 c0.864-0.009,1.733,0.009,2.592,0.097c0.927,0.095,1.608,0.585,1.942,1.496c0.208,0.568,0.457,1.122,0.652,1.694 c5.817,17.114,11.629,34.228,17.44,51.344C172.585,115.635,172.814,116.377,173.076,117.186z" fill="url(#b)"/><g id="change2_1"><path d="M138.034,109.317c0.525,0.382,0.992,0.722,1.461,1.063c-0.054,0.314-0.021,0.619-0.153,0.808 c-2.376,3.389-4.703,6.827-8.499,8.857c-0.301,0.161-0.566,0.397-0.825,0.624c-1.597,1.395-3.341,1.726-5.48,1.351 c-4.167-0.73-8.388-1.154-12.772-1.729c-0.477-1.07-1.029-2.222-1.508-3.405c-0.655-1.617-1.698-2.937-2.8-4.278 c-1.514-1.843-2.762-3.902-4.401-5.66c-0.124-0.133-0.016-0.483-0.016-0.836c1.973-1.039,3.883-0.667,5.702,0.245 c0.902,0.452,1.698,1.161,2.45,1.853c0.82,0.754,1.632,1.477,2.85,1.953c0.342-0.98,0.703-1.844,0.946-2.74 c0.912-3.358,2.515-6.348,4.676-9.058c0.208-0.261,0.443-0.563,0.498-0.875c0.205-1.162,1.178-1.146,1.976-1.263 c0.575-0.085,0.961,0.443,1.035,0.966c0.083,0.585,0.093,1.232-0.072,1.79c-0.365,1.237-0.764,2.483-1.325,3.64 c-0.768,1.581-1.134,3.252-1.423,4.952c-0.087,0.509-0.075,1.059,0.826,1.356c1.639-0.691,3.178-1.88,4.622-3.16 c1.486-1.317,2.828-2.795,4.275-4.157c0.617-0.58,1.346-1.039,2.015-1.566c0.562-0.443,1.095-0.354,1.664,0.001 c0.608,0.379,0.787,0.955,0.622,1.566c-0.245,0.906-0.585,1.792-0.944,2.662c-0.361,0.874-0.82,1.708-1.172,2.584 c-0.066,0.164,0.108,0.522,0.277,0.655c0.162,0.127,0.477,0.14,0.699,0.09c0.24-0.054,0.548-0.183,0.659-0.375 c0.74-1.279,2.219-1.589,3.231-2.506c0.242-0.219,0.605-0.33,0.932-0.422c0.816-0.229,1.586,0.511,1.365,1.352 c-0.196,0.748-0.489,1.472-0.762,2.198C138.482,108.326,138.263,108.784,138.034,109.317z" fill="#e0e111"/></g><g id="change3_1"><path d="M196.192,43.027c-3.306,0.178-6.584,0.355-9.863,0.531c-0.518,0.028-0.824-0.156-0.709-0.816 c1.203-0.343,2.423-0.766,3.677-1.028c1.312-0.274,2.143-1.091,2.766-2.161c1.129-1.942,2.218-3.909,3.297-5.88 c1.402-2.562,1.89-5.366,2.101-8.233c0.031-0.425,0.019-0.882-0.104-1.284c-0.468-1.533-0.431-3.09-0.188-4.632 c0.598-3.798-0.578-7.188-2.335-10.436c-0.835-1.543-2.055-2.771-3.553-3.713c-2.777-1.747-5.803-2.649-9.08-2.701 c-0.951-0.015-1.903-0.002-3.014-0.002c-0.262,0.728-0.528,1.431-0.769,2.144c-0.859,2.534-1.419,5.157-2.641,7.583 c-1.007,1.998-2.452,3.54-4.139,4.919c-0.585,0.478-1.04,0.467-1.611-0.01c-0.198-0.165-0.342-0.394-0.538-0.561 c-1.593-1.356-3.708-0.947-4.45,0.962c-0.75,1.931-1.414,3.907-0.868,6.055c0.191,0.751,0.212,1.543,0.349,2.309 c0.283,1.585,0.933,2.988,2.277,3.942c0.672,0.477,1.089,1.028,1.313,1.834c1.112,4.001,2.282,7.985,3.409,11.981 c0.135,0.478,0.131,0.994,0.205,1.6c-3.121,1.082-6.026,0.812-8.834-0.618c-0.513-0.262-0.999-0.726-1.308-1.217 c-1.942-3.079-3.604-6.263-4.49-9.861c-1.081-4.389-1.496-8.855-2.007-13.317c-0.127-1.106-0.212-2.233-0.149-3.34 c0.037-0.655,0.307-1.343,0.632-1.927c2.643-4.742,5.83-8.989,10.809-11.551c3.112-2.693,6.896-2.91,10.742-2.944 c1.029-0.009,2.072-0.067,3.08-0.257c1.884-0.355,3.706-0.403,5.64-0.1c1.8,0.282,3.551,0.695,5.319,1.088 c2.325,0.516,4.336,1.647,6.322,2.908c4.952,3.145,6.668,7.947,7.013,13.456c0.176,2.814-0.432,5.521-1.54,8.093 c-0.692,1.607-1.172,3.262-1.418,4.975c-0.516,3.595-2.15,6.729-3.914,9.818C197.195,41.378,196.745,42.102,196.192,43.027z" fill="#f4f4f4"/></g><g><g id="change1_2"><path d="M151.377,64.794c-0.983,0-2.017,0.423-2.963,0.423c-26.732,0-53.463-0.05-80.195-0.053 c-0.864,0-1.754,0.05-2.614-0.019c-0.156-0.012-0.753-0.692-0.735-0.858c0.018-0.168,0.652-0.609,0.84-0.627 c0.687-0.063,1.402,0.043,2.093,0.043c27.251-0.002,54.501-0.158,81.752-0.158c0.858,0,1.777,0.263,2.77,0.263 c6.424,18.323,12.643,36.597,19.025,54.8c-0.989,0.476-0.763,0.349-1.042-0.442c-1.236-3.499-2.979-6.82-4.206-10.322 c-4.706-13.439-9.603-26.812-14.316-40.249C151.504,66.788,151.737,65.697,151.377,64.794z" fill="#010101"/></g><g id="change1_25"><path d="M170.588,29.765c0.037,1.299-1.229,1.581-1.453,3.027c0.016,0.078,0.124,0.656,0.264,1.23 c0.698,2.851,1.216,5.747,1.91,8.599c0.122,0.503,0.426,0.974,0.454,1.489c0.011,0.205-0.257,0.205-0.364,0.416 c-0.259-0.157-0.571-0.074-0.627-0.285c-0.58-2.169-1.248-4.315-1.793-6.493c-0.482-1.927-1.136-3.812-1.604-5.742 c-0.166-0.687-0.036-1.429-0.93-1.582c-0.172-0.029-0.388-0.265-0.52-0.455c-2.385-3.412-2.341-7.305-1.937-11.242 c0.098-0.955,0.452-1.815,1.215-2.458c1.393-1.173,3.038-1.17,4.416,0.082c0.309,0.28,0.582,0.736,0.977,1.105 c0.553-0.395,1.002-0.887,1.357-1.325c2.854-3.52,5.067-7.368,6.267-11.645c-0.47-0.522-0.932-0.353-1.192-0.198 c-4.853,2.883-9.076,6.634-13.427,10.197c-3.493,2.861-4.478,6.489-4.123,10.836c0.512,6.274,2.123,12.171,4.865,17.838 c0.218,0.451,0.324,1.038,0.548,1.608c-0.319,0.165-0.731,0.298-0.958,0.415c-0.232-0.16-0.31-0.282-0.366-0.408 c-0.344-0.785-0.824-1.511-1.168-2.296c-2.704-6.164-4.365-12.605-4.366-19.367c0-2.265,0.486-4.492,1.592-6.499 c0.901-1.636,2.339-2.886,3.783-3.935c0.762-0.553,1.456-1.11,2.2-1.652c0.675-0.492,1.399-0.925,2.056-1.44 c0.671-0.526,1.263-1.13,2.002-1.521c0.657-0.347,0.717-1.641,1.651-1.512c2.174-2.22,5.441-3.018,7.218-5.635 c1.4,0.762,1.638,0.965,1.44,1.809c-1.139,4.85-3.243,9.303-6.143,13.347c-0.81,1.129-1.852,2.142-3.147,2.726 c-0.92-0.053-1.138-1.121-1.678-1.644c-1.065-1.034-2.538-0.711-3.335,0.514c-0.276,0.424-0.621,0.873-0.674,1.368 c-0.335,3.138-0.304,6.295,1.189,9.168c0.87,1.675,1.63,2.048,3.705,1.726C170.052,29.906,170.182,29.743,170.588,29.765z" fill="#010101"/></g><g id="change1_7"><path d="M95.351,146.112c-1.241,0.595-1.638,0.85-2.34,1.137c-8.473,3.461-13.994,9.771-17.027,18.408 c-1.751,4.987-3.31,10.034-3.861,15.297c-0.432,4.126-0.741,8.269-1.03,12.405c-0.356,5.087-0.589,10.187-0.741,15.286 c-0.095,3.197,0.041,6.401,0.051,9.602c0.003,1.122,0.051,2.266,0.051,3.305c-0.54,0.362-0.658,0.294-0.827-0.289 c-0.07-0.243-0.094-0.419-0.092-0.676c0.066-6.919-0.33-13.845-0.128-20.76c0.21-7.176,0.989-14.327,1.907-21.442 c0.731-5.671,2.684-11.044,4.763-16.37c0.365-0.936,0.7-1.892,1.21-2.77c0.473-0.814,1.272-1.423,1.779-2.216 c0.322-0.503,0.555-1.021,0.964-1.453c1.058-1.118,1.943-2.403,3.053-3.47c0.852-0.819,1.421-2.028,2.692-2.297 c0.945-1.508,2.847-1.584,4.309-2.288c1.338-0.644,2.681-1.27,4.087-1.756C94.412,145.681,94.395,145.785,95.351,146.112z" fill="#010101"/></g><g id="change1_39"><path d="M275.513,67.879c-1.963,0.058-3.612,0.928-5.387,0.578c-0.131-0.221-0.329-0.456-0.382-0.692 c-0.207-0.924,0.023-5.231,0.326-5.918c0.81-1.837,2.387-3.035,4.067-3.946c1.502-0.814,3.054-1.544,4.786-1.915 c2.389-0.513,4.543-1.659,6.61-2.975c0.904-0.576,1.874-0.998,2.762-1.529c0.587,0.359,0.431,0.733,0.153,1.063 c-0.962,1.144-2.219,1.868-3.6,2.419c-1.998,0.798-4.066,1.561-6.26,2.393c-0.041,1.449-0.073,3.159,0.02,4.765 c0.134,2.329-0.323,4.446-1.873,6.241c-0.145,0.168-0.144,0.392-0.191,0.599c0.756,0.033,1.481,0.022,2.193,0.14 c0.32,0.053,0.494,0.426,0.183,0.776c-0.311,0.35-0.741,0.512-0.509,1.208c0.246,0.738-0.799,0.589-0.866,1.08 c-0.054,0.394-0.112,0.717-0.066,1.329c-0.469-0.184-0.721-0.173-0.926-0.376c-0.363-0.359-0.651-0.792-0.95-1.214 c-0.75-1.058-0.958-1.085-2.008-0.229c-2.487,2.028-5.154,3.753-8.066,5.127c-1.089,0.514-2.134,1.13-3.257,1.559 c-0.448,0.171-0.754,0.017-0.686-0.747c1.086-0.561,2.157-1.251,3.29-1.908c1.983-1.151,3.938-2.33,5.817-3.663 c1.253-0.889,2.584-1.665,3.716-2.712C274.804,68.966,275.092,68.467,275.513,67.879z M274.522,62.984 c2.073-0.347,2.727-1.857,2.965-3.688c0.068-0.52,0.043-1.035-0.703-1.238c-1.962,0.705-3.674,1.694-4.826,3.529 C272.857,62.055,273.546,62.475,274.522,62.984z M274.847,66.564c2.434-0.962,2.674-1.348,2.126-3.14 c-1.711,0.609-3.395,1.189-5.098,1.795C273.449,65.492,273.437,65.502,274.847,66.564z" fill="#010101"/></g><g id="change1_26"><path d="M55.309,193.371c2.168-6.348,4.266-12.055,6.647-17.698c2.646-6.272,5.12-12.623,7.553-18.98 c2.035-5.316,4.334-10.499,6.761-15.635c0.5-1.059,1.004-2.145,1.619-3.15c0.535-0.875,1.103-1.729,1.636-2.606 c1.035-1.702,2.476-3.113,3.89-4.495c0.662-0.648,1.582-0.401,2.626-0.756c-0.268,0.631-0.208,1.36-0.408,1.5 c-3.294,2.297-5.246,5.539-7.204,8.903c-2.438,4.189-4.77,8.422-6.58,12.913c-3.194,7.93-6.027,16.004-9.189,23.946 c-1.756,4.408-3.383,8.863-5.067,13.3c-0.305,0.804-0.68,1.608-1.068,2.373C56.433,193.167,56.017,193.134,55.309,193.371z" fill="#010101"/></g><g id="change1_17"><path d="M121.375,169.452c0.642-0.058,1.298-0.345,1.555-0.234c6.529,2.827,12.874,6.076,19.4,8.907 c5.356,2.324,10.666,4.814,16.223,6.648c3.622,1.195,7.461,1.455,11.206,2.073c2.826,0.466,5.645,0.681,8.505,0.533 c1.115-0.058,2.244,0.022,3.358-0.082c0.121-0.011,0.358,0.006,0.365,0.111c0.016,0.219-0.134,0.329-0.245,0.361 c-0.735,0.213-1.41,0.631-2.166,0.665c-3.548,0.161-7.109,0.396-10.632-0.204c-4.601-0.783-9.154-1.793-13.511-3.535 c-1.922-0.768-3.894-1.423-5.795-2.24c-8.006-3.438-15.975-6.963-23.971-10.424c-1.028-0.445-1.995-1.024-2.985-1.546 C122.346,170.308,121.874,169.947,121.375,169.452z" fill="#010101"/></g><g id="change1_5"><path d="M181.261,0.818c0.448-0.532,0.47-0.588,0.634-0.601c3.796-0.324,7.497-0.48,11.136,1 c3.073,1.25,5.945,2.76,8.147,5.271c3.068,3.5,4.377,7.641,3.922,12.262c-0.152,1.543-0.561,3.059-0.96,4.554 c-0.936,3.503-2.041,6.957-3.067,10.436c-0.762,2.584-1.816,5.009-3.18,7.32c-0.475,0.804-0.93,1.836-1.953,2.061 c-0.508-0.473-0.417-1.135-0.059-1.546c2.739-3.143,3.762-7.041,4.848-10.944c0.902-3.244,2.182-6.395,2.912-9.678 c0.705-3.17,0.453-6.368-0.77-9.452c-0.518-1.307-1.448-2.28-2.258-3.384c-0.824-1.124-1.551-2.133-2.865-2.758 c-0.762-0.363-1.199-1.336-2.223-1.428c-2.239-1.989-4.932-2.691-7.782-2.914c-1.548-0.121-3.116,0.08-4.673,0.074 C182.563,1.089,182.187,0.871,181.261,0.818z" fill="#010101"/></g><g id="change1_29"><path d="M165.663,131.852c-4.119-1.03-8.219-2.092-12.333-3.035c-5.378-1.234-10.723-2.632-16.125-3.757 c-3.715-0.774-7.484-1.287-11.207-2.022c-0.497-0.098-0.896-0.473-1.343-0.713c-0.139-0.075-0.209-0.235-0.296-0.599 c1.735-0.038,3.244,0.381,4.901,0.556c0.252-0.507,0.763-0.802,0.977-1.347c0.255-0.647,0.265-1.316,1.068-1.594 c0.649-0.224,1.164-0.855,1.738-1.425c0.393,0.123,0.712,0.181,1.162,0.322c-0.703,1.882-3.027,2.066-3.124,4.299 c1.214,0.715,2.491,0.631,3.859,1.071c0.347-1.301,0.678-2.496,1.042-3.638c0.069-0.216,0.323-0.306,0.636-0.509 c0.624,1.589-0.488,2.827-0.313,4.34c1.087,0.258,2.21,0.398,3.286,0.593c7.386,1.335,14.6,3.419,21.858,5.311 c1.334,0.348,2.721,0.49,4.041,0.882C165.878,130.701,166.275,131.089,165.663,131.852z" fill="#010101"/></g><g id="change1_34"><path d="M186.211,44.098c0.311,0.081,0.592,0.236,1.094,0.367c-0.279,0.515-0.373,0.972-0.639,1.259 c-2.171,2.342-4.364,4.669-6.679,6.861c-1.827,1.73-4.103,2.725-6.555,3.388c-0.32,0.087-0.611,0.322-0.976,0.438 c-0.041,0.489-0.008,0.924-0.064,1.34c-0.116,0.867-0.691,1.357-1.485,1.654c-1.213,0.454-2.253-0.169-2.381-1.493 c-0.04-0.417-0.046-0.736-0.022-1.208c-1.419-0.629-2.811-1.249-4.145-1.84c-0.526-0.946-0.892-2.057-1.439-3.042 c-1.131,0.506-2.13,1.19-3.147,1.627c-0.312,0.134-0.699,0.024-1.03,0.037c-0.196,0.007-0.5-0.05-0.542-0.211 c-0.052-0.199,0.092-0.527,0.228-0.564c1.576-0.431,2.747-1.772,4.336-2.167c1.704-0.424,2.56-1.477,2.592-3.259 c0.009-0.516,0.091-1.04,0.22-1.533c0.064-0.246,0.349-0.412,0.63-0.682c0.825,2.743,0.333,4.3-1.889,6.478 c0.173,1.925,1.59,2.94,3.168,3.389c2.524,0.717,5.117,0.808,7.486-0.797c1.006-0.682,2.194-1.098,3.167-1.813 c1.026-0.753,1.803-1.816,2.74-2.701c1.182-1.117,2.207-2.404,3.58-3.35c0.733-0.505,1.133-1.436,1.691-2.195 C186.165,44.061,186.181,44.083,186.211,44.098z" fill="#010101"/></g><g id="change1_11"><path d="M160.758,40.935c-0.335,0.183-0.716,0.359-0.964,0.494c-0.195-0.164-0.401-0.271-0.448-0.397 c-1.334-3.554-2.722-7.086-3.615-10.796c-0.833-3.461-1.389-6.928-1.329-10.507c0.048-2.828,0.699-5.389,2.52-7.618 c0.636-2.011,2.552-3.097,3.451-4.921c2.139-1.225,3.411-3.776,5.999-4.408c0.985-0.241,1.88-0.783,2.842-1.159 c0.355-0.139,0.826,0.055,1.518,0.055c-0.327,0.437-0.373,0.89-0.61,1.019c-1.741,0.949-3.519,1.821-5.224,2.829 c-2.186,1.292-4.044,2.912-5.49,4.999c-0.59,0.852-1.251,1.653-1.873,2.482c-1.394,1.862-2.095,4.014-2.179,6.326 c-0.125,3.407,0.471,6.758,1.269,10.042c0.837,3.445,1.868,6.858,3.332,10.097C160.165,39.932,160.55,40.372,160.758,40.935z" fill="#010101"/></g><g id="change1_32"><path d="M186.269,44.066c-0.194-0.072-0.467-0.163-0.61-0.107c-2.321,0.918-4.392,0.342-6.342-1.058 c-0.617-0.443-1.266-0.849-1.911-1.254c-0.595-0.373-0.689-0.784-0.469-1.552c0.468,0.034,0.951-0.188,1.413-0.045 c2.746,0.849,5.597,0.899,8.404,1.341c1.569,0.247,2.947-0.06,3.929-1.391c0.498-0.674,1.201-1.244,1.557-1.975 c1.873-3.848,4.087-7.57,4.458-11.982c0.086-1.018,0.067-2.047,0.109-3.072c0.014-0.35,0.209-0.733,0.366-1.097 c0.842,0.505,0.768,1.251,0.803,1.947c0.124,2.454-0.162,4.863-1.087,7.095c-1.185,2.859-2.641,5.609-4.065,8.363 c-1.056,2.044-2.665,3.279-5.105,3.345c-0.572,0.015-1.153,0.353-1.649,0.646c-0.457,0.27-0.391,0.627,0.112,0.886 C186.182,44.158,186.295,44.088,186.269,44.066z" fill="#010101"/></g><g id="change1_18"><path d="M86.804,175.346c0.869,0.043,0.973,0.405,1.04,0.88c0.325,2.309,1.057,4.568,1.315,6.885 c1.081,9.713,2.705,19.303,5.258,28.738c0.221,0.818,0.29,1.682,0.399,2.526c0.013,0.099-0.171,0.466-0.308,0.507 c-0.126,0.038-0.511-0.117-0.587-0.216c-0.15-0.196-0.181-0.512-0.246-0.753c-2.305-8.506-4.03-17.114-5.075-25.88 c-0.388-3.258-1.077-6.48-1.509-9.733C86.969,177.369,86.882,176.401,86.804,175.346z" fill="#010101"/></g><g id="change1_36"><path d="M112.823,216.973c-0.678-1.45-1.457-2.89-2.135-4.345c-1.709-3.665-3.448-7.318-5.11-11.004 c-2.16-4.79-4.365-9.54-7.028-14.079c-0.553-0.943-0.773-2.071-1.183-3.091c-0.113-0.28-0.142-0.646-0.165-1.077 c0.819,0.127,1.153,0.662,1.412,1.183c2.911,5.846,6.12,11.543,8.662,17.579c1.632,3.875,3.607,7.601,5.406,11.405 c0.365,0.771,0.73,1.552,1.038,2.347C113.87,216.273,113.713,216.368,112.823,216.973z" fill="#010101"/></g><g id="change1_33"><path d="M208.56,67.032c0.746-0.21,1.085,0.065,1.11,0.433c0.1,1.467,0.04,2.939,0.047,4.408 c0.03,6.341,1.229,12.571,2.252,18.799c0.46,2.799,1.275,5.541,1.981,8.301c0.141,0.549,0.184,1.132,0.275,1.836 c-0.452-0.13-0.839-0.093-0.961-0.249c-0.202-0.258-0.202-0.665-0.296-0.992c-0.947-3.32-2.056-6.587-2.557-10.035 c-0.672-4.624-1.42-9.241-1.75-13.903C208.46,72.789,208.347,69.909,208.56,67.032z" fill="#010101"/></g><g id="change1_10"><path d="M185.168,59.802c0.014,0.236-0.012,0.317-0.017,0.403c-0.004,0.084,0.13,0.249,0.087,0.311 c-0.145,0.209-0.335,0.417-0.525,0.579c-5.853,4.994-11.319,10.39-16.693,15.881c-1.928,1.97-3.68,4.115-5.518,6.176 c-0.1,0.112-0.279,0.157-0.441,0.227c-0.57-0.226-0.373-0.657-0.24-1.06c0.102-0.311,0.22-0.63,0.455-0.798 c2.401-1.713,3.391-4.768,5.912-6.358c3.805-3.851,7.569-7.751,11.337-11.637c1.243-1.282,2.85-2.1,3.968-3.526 C183.913,59.466,184.62,59.779,185.168,59.802z" fill="#010101"/></g><g id="change1_22"><path d="M137.162,108.532c-0.895-1.428-1.009-2.208-0.71-3.206c0.29-0.968,1.301-1.469,2.209-1.114 c1.099,0.43,1.51,1.193,1.079,2.16c-0.385,0.864-0.852,1.696-1.362,2.662c0.194,0.287,0.482,0.611,0.705,0.955 c0.548,0.844,0.569,1.491,0.067,2.141c-0.486,0.628-1.203,0.772-1.9,0.563c-0.459-0.138-0.839-0.49-1.364-0.797 c-2.33,1.845-4.69,3.681-6.991,5.503c-0.898-0.336-0.592-0.966-0.323-1.284c0.659-0.781,1.406-1.508,2.213-2.137 c0.706-0.55,1.512-0.98,2.277-1.459c0.29-0.181,0.591-0.359,0.833-0.601C134.969,110.84,135.978,109.741,137.162,108.532z M137.739,110.56c-0.161,0.283-0.381,0.431-0.362,0.6c0.015,0.139,0.376,0.416,0.461,0.378c0.182-0.082,0.415-0.328,0.444-0.517 C138.299,110.904,137.972,110.782,137.739,110.56z" fill="#010101"/></g><g id="change1_3"><path d="M238.737,97.407c-1.028,2.522-2.033,4.796-2.958,7.067c-1.34,3.287-2.381,6.658-2.957,10.169 c-0.251,1.531-0.424,3.076-0.556,4.626c-0.052,0.606-0.054,1.215-0.681,1.556c-0.58-0.247-0.73-0.753-0.658-1.3 c0.326-2.483,0.507-5.007,1.068-7.435c1.071-4.63,2.879-9.027,4.882-13.331C237.17,98.129,237.508,97.485,238.737,97.407z" fill="#010101"/></g><g id="change1_16"><path d="M264.404,68.313c0.419-0.367,0.872-0.671,1.264-0.989c1.41-1.145,2.027-2.653,2.126-4.473 c0.065-1.191,0.416-2.363,0.684-3.532c0.087-0.378,0.353-1.014,0.632-1.05c1.236-0.159,1.505-1.272,2.271-1.89 c0.714-0.575,1.51-1.048,2.224-1.623c0.168-0.135,0.136-0.429,0.252-0.675c-0.97-0.219-2.114,0.028-2.353-1.547 c0.708-0.035,1.409,0.144,1.923-0.117c0.441-0.223,0.615-0.98,0.938-1.481c0.797,0.096,0.977,0.716,1.045,1.295 c0.186,1.572-0.345,2.909-1.51,3.943c-1.159,1.029-2.391,1.974-3.601,2.94c-0.729,0.582-1.102,1.316-1.186,2.225 c-0.104,1.114-0.087,2.256-0.321,3.346c-0.395,1.837-1.361,3.291-3.192,4.083C265.171,68.955,264.745,69.052,264.404,68.313z" fill="#010101"/></g><g id="change1_41"><path d="M190.103,96.223c-0.132,0.355-0.116,0.694-0.268,0.77c-0.531,0.262-1.102,0.572-1.676,0.628 c-1.546,0.152-3.107,0.173-4.658,0.152c-4.03-0.055-7.555-1.551-10.758-3.863c-1.56-1.126-2.759-2.628-3.507-4.426 c-0.093-0.223-0.07-0.259,0.301-1.12c0.461-0.1,0.705,0.26,0.832,0.541c1.395,3.085,3.841,4.845,6.833,6.221 c3.873,1.781,7.786,1.834,11.837,1.012C189.35,96.075,189.668,96.202,190.103,96.223z" fill="#010101"/></g><g id="change1_8"><path d="M208.816,102.785c0.355,0.084,0.685,0.157,1.005,0.233c-1.314,4.381-7.991,12.348-13.586,16.312 c-0.432-0.164-0.863-0.426-0.481-0.95c0.271-0.371,0.375-0.804,0.951-1.083c0.888-0.43,1.66-1.175,2.399-1.889 c0.733-0.709,1.318-1.568,2.034-2.295c0.359-0.364,0.778-0.666,1.091-1.063c1.204-1.523,2.288-3.161,3.6-4.582 C207.115,106.078,207.776,104.366,208.816,102.785z" fill="#010101"/></g><g id="change1_28"><path d="M132.941,104.34c-0.762-0.297-1.177-0.409-1.557-0.557c-0.645-1.059-0.33-2.195-0.043-3.268 c0.075-0.28,0.374-0.655,0.645-0.745c0.28-0.093,0.627,0.137,1.166,0.226c-0.354,0.712-0.709,1.249-0.912,1.857 c-0.081,0.244,0.119,0.679,0.309,0.891c0.234,0.263,0.813-0.019,0.995-0.408c0.177-0.378,0.369-0.75,0.563-1.118 c0.049-0.092,0.291-0.171,0.415-0.131c0.139,0.045,0.324,0.246,0.309,0.342c-0.123,0.755-0.218,1.526-0.477,2.238 c-0.932,2.571-2.498,4.699-4.65,6.369c-1.418,1.1-2.901,2.118-4.31,3.15c-0.851-0.219-0.681-0.8-0.449-1.219 c0.238-0.431,0.616-0.868,1.046-1.083c1.805-0.903,3.189-2.377,4.787-3.549C131.621,106.715,132.078,105.574,132.941,104.34z" fill="#010101"/></g><g id="change1_14"><path d="M140.105,172.577c-0.824-0.318-1.41-0.443-1.724-0.754c-1.644-1.625-3.507-3.002-4.863-4.95 c-0.771-1.108-1.924-2.049-3.092-2.727c-1.998-1.159-3.366-2.954-4.996-4.471c-0.566-0.527-0.916-1.217-0.48-2.239 c5.101,4.591,10.045,9.209,14.939,13.89C140.031,171.463,139.986,171.884,140.105,172.577z" fill="#010101"/></g><g id="change1_20"><path d="M112.439,120.809c-0.881-0.444-1.438-0.572-1.509-0.818c-0.799-2.799-3.015-4.965-3.623-7.845 c-0.087-0.41-0.286-0.811-0.487-1.188c-0.914-1.714-0.896-1.718-0.685-3.366c-0.918-0.06-1.876-0.081-2.764-0.139 c-0.36-0.481-0.206-0.852,0.276-1.017c0.826-0.283,1.716-0.494,2.535-0.058c0.889,0.473,1.541,1.192,1.352,2.324 c-0.052,0.312-0.179,0.68-0.041,0.9c1.277,2.046,1.583,4.534,3.002,6.547C111.306,117.298,111.662,118.811,112.439,120.809z" fill="#010101"/></g><g id="change1_38"><path d="M183.892,128.868c-1.026-0.111-1.66-0.228-2.328-0.316c-2.218-0.292-4.43-0.682-6.656-0.883 c-4.292-0.387-8.607-0.507-12.904-0.842c-0.465-0.036-0.814-0.213-0.612-0.918c1.828-0.342,3.692-0.284,5.559-0.136 c3.35,0.265,6.701,0.567,10.04,0.946c2.048,0.233,4.075,0.684,6.099,1.087C183.344,127.858,183.485,128.316,183.892,128.868z" fill="#010101"/></g><g id="change1_24"><path d="M119.342,109.812c-0.505-1.708-0.034-3.348,0.508-4.944c0.516-1.517,1.28-2.962,1.916-4.436 c-2.169-1.338-2.13-1.301-1.683-2.836c0.287,0.24,0.544,0.337,0.732,0.565c0.443,0.538,0.819,0.83,1.415,0.222 c0.441-0.45,0.902-0.366,1.477,0.102c-0.266,1.273-0.685,2.562-1.312,3.75c-1.143,2.169-1.982,4.404-2.174,6.859 C120.186,109.548,120.057,109.916,119.342,109.812z" fill="#010101"/></g><g id="change1_9"><path d="M186.316,16.813c-0.657,0.575-1.225,1.097-1.82,1.567c-0.428,0.338-0.952,0.451-1.46,0.179 c-0.493-0.264-0.619-0.792-0.358-1.629c0.049-0.157,0.266-0.265,0.307-0.423c0.035-0.134-0.031-0.327-0.06-0.559 c-1.156-0.293-2.153,0.282-3.103,0.811c-0.72,0.401-1.382,0.573-2.264,0.195c0.278-1.097,1.28-1.47,2.091-1.7 c1.277-0.362,2.598-0.922,3.991-0.506C184.717,15.069,185.726,15.516,186.316,16.813z" fill="#010101"/></g><g id="change1_6"><path d="M185.764,30.914c-0.364-1.462,0.782-1.903,1.655-2.199c0.944-0.321,2.022-0.265,3.041-0.357 c1.095-0.099,1.725,0.641,2.3,1.402c0.469,0.621,0.075,1.716-0.699,1.837c-0.754,0.118-1.552,0.162-2.307,0.058 C188.408,31.47,187.06,31.165,185.764,30.914z M188.258,29.753c1.456,0.872,2.381,1.087,3.74,0.528 C190.827,29.275,189.799,29.526,188.258,29.753z" fill="#010101"/></g><g id="change1_23"><path d="M122.32,163.315c-0.836-0.687-1.331-1.047-1.736-1.446c-2.021-1.991-3.984-4.041-6.01-6.027 c-0.828-0.812-2.104-1.156-2.401-2.474c0.524-0.225,1.073-0.4,1.595,0.119c2.741,2.729,5.473,5.468,8.185,8.225 C122.172,161.937,122.145,162.456,122.32,163.315z" fill="#010101"/></g><g id="change1_35"><path d="M191.137,15.013c0.065,0.537,0.274,0.871,0.211,1.188c-0.34,1.694,0.263,3.011,1.38,4.204 c0.235,0.25,0.415,0.552,0.598,0.843c0.493,0.783,0.601,1.563,0.151,2.424c-0.438,0.836-0.84,1.706-1.879,2.206 c-0.434-0.773-0.272-1.39,0.119-1.966c0.994-1.464,1.009-1.439,0.166-2.601c-0.304-0.419-0.668-0.794-0.979-1.208 c-1.079-1.433-1.202-3.068-0.655-4.715C190.311,15.2,190.767,15.184,191.137,15.013z" fill="#010101"/></g><g id="change1_1"><path d="M180.458,134.854c-0.319,0.273-0.534,0.584-0.678,0.555c-3.591-0.721-7.146-1.579-10.754-2.802 c0.261-0.334,0.381-0.577,0.557-0.622c0.319-0.081,0.68-0.114,1.002-0.033c2.911,0.733,5.827,1.451,8.726,2.226 C179.684,134.278,180.003,134.587,180.458,134.854z" fill="#010101"/></g><g id="change1_12"><path d="M188.221,11.837c-0.497,0-0.949,0.128-1.24-0.049c-2.455-1.492-4.936-1.24-7.424-0.098 c-0.149,0.068-0.328,0.111-0.486,0.093c-0.156-0.017-0.351-0.089-0.427-0.208c-0.072-0.113-0.081-0.379,0.002-0.455 c0.682-0.623,1.303-1.295,2.381-1.304c1.022-0.009,2.033-0.33,3.058-0.45c1.565-0.183,2.862,0.398,3.867,1.614 C188.096,11.156,188.102,11.418,188.221,11.837z" fill="#010101"/></g><g id="change1_30"><path d="M145.693,72.546c0-0.928-0.002-1.86-0.002-2.828c0.56-0.115,1.063-0.3,1.556-0.31 c1.048-0.022,1.868,0.756,1.885,1.685c0.017,0.941-0.795,1.747-1.813,1.731C146.818,72.815,146.308,72.665,145.693,72.546z" fill="#010101"/></g><g id="change1_37"><path d="M194.358,18.859c-0.5,0.111-0.909,0.247-1.318,0.269c-0.205,0.011-0.528-0.132-0.606-0.299 c-0.069-0.149,0.073-0.496,0.226-0.608c0.733-0.536,1.579-0.689,2.456-0.547c1.563,0.254,2.16,1.863,1.163,3.15 c-0.179,0.231-0.586,0.411-0.864,0.378c-0.274-0.033-0.632-0.315-0.723-0.577C194.504,20.08,194.461,19.479,194.358,18.859z" fill="#010101"/></g><g id="change1_15"><path d="M193.078,13.876c0-0.303-0.069-0.603,0.006-0.653c1.871-1.237,4.599-0.043,4.708,1.987 c0.01,0.182-0.264,0.4-0.471,0.678c-0.3-0.272-0.566-0.485-0.775-0.727c-0.274-0.316-0.504-0.666-0.769-1.022 C194.897,14.049,193.975,13.968,193.078,13.876z" fill="#010101"/></g><g id="change1_4"><path d="M112.923,112.611c-0.657-0.456-0.651-0.942-0.3-1.391c0.52-0.666,1.111-1.277,1.674-1.92 c0.52,0.079,0.718,0.422,0.592,0.899C114.592,111.322,113.968,112.165,112.923,112.611z" fill="#010101"/></g><g id="change1_19"><path d="M192.471,33.21c-0.309,0.553-0.386,0.878-0.551,0.936c-1.508,0.53-2.994,0.237-4.461-0.199 c-0.134-0.04-0.17-0.389-0.318-0.766C188.93,33.099,190.571,33.326,192.471,33.21z" fill="#010101"/></g></g><g fill="#010101" id="change1_27"><path d="M408.355,135.588c-0.843-0.253-1.562-0.468-2.282-0.684c-0.435-1.176-1.643-1.616-2.404-2.507 c-2.753-3.218-4.293-6.94-5.116-11.031c-0.167-0.83-0.64-1.614-0.719-2.443c-0.079-0.834,0.263-1.702,0.238-2.549 c-0.155-5.252,1.566-9.899,4.392-14.234c1.161-1.78,2.971-2.72,4.628-3.864c0.429-0.296,0.967-0.275,1.395,0.138 c-0.039,0.167-0.025,0.418-0.124,0.477c-1.024,0.604-1.811,1.347-2.303,2.503c-0.281,0.66-0.966,1.398-1.621,1.594 c-1.159,0.346-1.603,1.184-2.148,2.06c-2.359,3.796-3.165,7.954-2.985,12.362c0.162,3.951,1.213,7.675,3.102,11.111 c1.245,2.265,2.986,4.178,5.246,5.559C408.095,134.348,408.869,134.563,408.355,135.588z"/><path d="M444.506,137.213c0.358-0.145,0.722-0.349,1.113-0.44c1.089-0.254,2.19-0.46,3.285-0.687 c2.19-0.454,4.007-1.645,5.857-2.832c3.224-2.069,5.034-5.195,6.598-8.507c0.435-0.921,0.636-1.972,0.824-2.986 c0.187-1.013,0.222-2.054,0.323-3.076c0.489-0.308,0.929-0.114,0.977,0.355c0.097,0.939,0.201,1.935-0.003,2.838 c-1.247,5.502-3.8,10.171-8.77,13.221c-2.089,1.282-4.422,1.907-6.753,2.533c-0.748,0.201-1.514,0.348-2.28,0.469 C445.097,138.193,444.667,137.966,444.506,137.213z"/><path d="M386.345,89.601c0.445-0.463,0.876-0.466,1.15-0.047c0.373,0.569,0.641,1.208,0.934,1.826 c0.536,1.131,1.455,1.577,2.665,1.568c0.938-0.007,1.916-0.119,2.728,0.5c0.742,0.565,1.479,1.148,2.153,1.791 c0.552,0.526,1.081,1.109,1.475,1.754c0.166,0.273-0.038,0.772-0.075,1.168c-0.308-0.055-0.646-0.048-0.915-0.18 c-0.284-0.14-0.721-0.417-0.716-0.625c0.032-1.392-1.41-1.584-1.978-2.491c-0.26-0.415-1.012-0.569-1.572-0.731 c-0.4-0.115-0.853-0.066-1.282-0.054c-2.056,0.058-3.26-1.087-4.012-2.847C386.669,90.69,386.517,90.113,386.345,89.601z"/><path d="M381.493,102.948c0.25-0.268,0.46-0.675,0.656-0.668c0.582,0.018,1.156,0.228,1.74,0.307 c0.405,0.055,0.97,0.195,1.212-0.006c2.454-2.036,4.96-1.054,7.458-0.192c0.362,0.125,0.645,0.477,0.937,0.703 c-0.246,0.65-0.603,0.698-1.068,0.508c-1.198-0.488-2.42-0.912-3.735-0.845c-0.59,0.03-1.211,0.09-1.753,0.301 C384.36,104.064,384.368,104.085,381.493,102.948z"/><path d="M404.466,93.607c-0.776-0.144-1.252-0.232-1.678-0.31c-0.126-0.195-0.286-0.328-0.286-0.46 c0.003-2.054-1.342-3.208-2.825-4.27c-1.75-1.254-2.206-2.986-1.846-5.011c0.024-0.134,0.237-0.348,0.328-0.332 c0.21,0.036,0.535,0.156,0.574,0.304c0.173,0.658,0.29,1.335,0.373,2.011c0.114,0.925,0.543,1.74,1.331,2.111 c1.894,0.89,2.818,2.432,3.354,4.333C403.921,92.443,404.157,92.873,404.466,93.607z"/></g></g></svg>